<?xml version="1.0" encoding="UTF-8"?>
<svg xmlns="http://www.w3.org/2000/svg" xmlns:xlink="http://www.w3.org/1999/xlink" width="820px" height="250px" viewBox="0 0 820 250" version="1.1">
<g id="surface1">
<path style=" stroke:none;fill-rule:nonzero;fill:rgb(43.921569%,83.921569%,97.647059%);fill-opacity:1;" d="M 751.5 126.398438 L 609.320312 134.664062 C 602.632812 135.054688 600.308594 137.613281 605.390625 138.996094 L 640.394531 148.519531 C 643.855469 149.460938 644.074219 151.089844 640.875 152.117188 L 477.574219 204.414062 C 475.121094 205.199219 471.722656 205.640625 468.167969 205.640625 L 243 205.640625 C 234.558594 205.640625 226.335938 206.460938 219.519531 207.980469 L 69.238281 241.464844 C 64.660156 242.484375 62.917969 244.417969 65.78125 245.910156 C 68.863281 247.519531 75.605469 248.027344 80.761719 247.085938 L 235.949219 218.699219 C 238.648438 218.203125 241.773438 217.964844 244.917969 218.015625 L 477.28125 221.648438 C 493.238281 221.898438 508.820312 220.113281 520.296875 216.722656 L 692.542969 165.824219 C 695.636719 164.910156 700.519531 164.878906 703.734375 165.753906 L 736.730469 174.734375 C 741.8125 176.117188 749.886719 175.121094 750.394531 173.050781 L 761.226562 129.046875 C 761.636719 127.40625 756.8125 126.09375 751.5 126.398438 Z M 751.5 126.398438 "/>
<path style=" stroke:none;fill-rule:nonzero;fill:rgb(97.647059%,81.568627%,70.588235%);fill-opacity:1;" d="M 498.066406 110.371094 L 474.871094 107.007812 C 474.78125 107.378906 474.257812 107.746094 473.253906 108.03125 L 426.28125 121.410156 C 425.667969 121.585938 424.992188 121.730469 424.296875 121.859375 C 428.175781 122.300781 431.746094 122.699219 434.546875 123.003906 C 437.171875 123.289062 437.8125 124.324219 435.71875 124.882812 L 358.546875 145.476562 C 360.355469 145.9375 361.195312 146.726562 360.109375 147.476562 C 359.378906 147.980469 358.347656 148.621094 357.5 149.34375 C 354.792969 151.640625 358.6875 154.234375 366.179688 155.101562 L 386.859375 157.496094 L 501.179688 128.742188 C 523.796875 122.925781 518.863281 113.316406 498.066406 110.371094 Z M 498.066406 110.371094 "/>
<path style=" stroke:none;fill-rule:nonzero;fill:rgb(96.078431%,78.431373%,29.803922%);fill-opacity:1;" d="M 471.882812 105.460938 L 423.582031 98.328125 C 420.285156 99.417969 415.667969 100.089844 410.679688 100.171875 C 389.519531 100.511719 359.878906 97.351562 346.152344 95.324219 C 342.570312 94.796875 340.292969 93.828125 339.582031 92.75 L 328.960938 96.8125 C 313.410156 102.757812 325.21875 112.011719 348.933594 114.367188 L 413.722656 122.191406 C 418.058594 122.671875 422.910156 122.371094 426.285156 121.410156 L 473.257812 108.03125 C 475.929688 107.269531 475.210938 105.925781 471.882812 105.460938 Z M 471.882812 105.460938 "/>
<path style=" stroke:none;fill-rule:nonzero;fill:rgb(96.078431%,78.431373%,29.803922%);fill-opacity:1;" d="M 348.929688 114.367188 C 331.210938 112.605469 320.144531 106.992188 322.171875 101.785156 L 283.550781 118.625 C 280.894531 119.78125 281.925781 121.378906 285.816406 122.140625 L 331.851562 131.1875 C 335.269531 131.859375 339.78125 131.660156 342.441406 130.726562 L 378.761719 117.96875 Z M 348.929688 114.367188 "/>
<path style=" stroke:none;fill-rule:nonzero;fill:rgb(97.647059%,81.568627%,70.588235%);fill-opacity:1;" d="M 331.851562 131.1875 L 285.816406 122.144531 C 284.972656 121.976562 284.289062 121.765625 283.722656 121.535156 L 281.171875 122.652344 C 277.46875 124.273438 273.105469 125.742188 268.179688 127.023438 L 189.132812 147.570312 C 192.144531 147.902344 193.824219 148.984375 192.214844 149.945312 C 191.394531 150.433594 190.246094 151.058594 189.265625 151.761719 C 186.136719 154.011719 189.542969 156.664062 196.859375 157.660156 L 217.066406 160.410156 L 304.46875 140.113281 C 312.4375 138.261719 319.707031 136.15625 326.175781 133.828125 C 328.277344 133.070312 330.605469 132.230469 333.007812 131.371094 C 332.613281 131.316406 332.226562 131.257812 331.851562 131.1875 Z M 331.851562 131.1875 "/>
<path style=" stroke:none;fill-rule:nonzero;fill:rgb(85.490196%,90.196078%,94.509804%);fill-opacity:1;" d="M 205.1875 143.394531 L 189.136719 147.570312 C 192.144531 147.90625 193.828125 148.984375 192.21875 149.945312 C 191.394531 150.433594 190.25 151.058594 189.269531 151.761719 C 186.140625 154.011719 189.546875 156.664062 196.863281 157.660156 L 217.070312 160.410156 L 239.929688 155.097656 C 229.34375 151.472656 214.382812 146.382812 205.1875 143.394531 Z M 205.1875 143.394531 "/>
<path style=" stroke:none;fill-rule:nonzero;fill:rgb(85.490196%,90.196078%,94.509804%);fill-opacity:1;" d="M 375.128906 141.054688 L 358.546875 145.476562 C 360.355469 145.9375 361.195312 146.730469 360.109375 147.480469 C 359.378906 147.980469 358.347656 148.625 357.5 149.34375 C 354.792969 151.644531 358.6875 154.234375 366.179688 155.101562 L 386.859375 157.496094 L 408.042969 152.167969 C 396.984375 148.417969 385.875 144.664062 375.128906 141.054688 Z M 375.128906 141.054688 "/>
<path style=" stroke:none;fill-rule:nonzero;fill:rgb(97.647059%,81.568627%,70.588235%);fill-opacity:1;" d="M 518.125 14.777344 C 491.300781 12.648438 463.894531 17.554688 456.914062 25.730469 C 449.933594 33.910156 466.023438 42.265625 492.851562 44.394531 C 519.675781 46.523438 547.082031 41.617188 554.0625 33.4375 C 561.042969 25.257812 544.953125 16.902344 518.125 14.777344 Z M 518.125 14.777344 "/>
<path style=" stroke:none;fill-rule:nonzero;fill:rgb(0%,0%,0%);fill-opacity:1;" d="M 559.484375 22.972656 C 553.6875 18.574219 542.617188 15.125 528.320312 13.265625 C 514.019531 11.40625 498.203125 11.355469 483.78125 13.125 C 469.355469 14.890625 458.050781 18.265625 451.953125 22.621094 C 445.847656 26.980469 445.679688 31.804688 451.476562 36.203125 C 457.273438 40.601562 468.339844 44.046875 482.636719 45.90625 C 489.980469 46.863281 497.722656 47.339844 505.46875 47.339844 C 512.8125 47.339844 520.160156 46.914062 527.175781 46.050781 C 556.957031 42.402344 571.449219 32.050781 559.484375 22.972656 Z M 521.210938 41.523438 C 510.753906 42.800781 499.289062 42.765625 488.925781 41.417969 C 478.5625 40.070312 470.542969 37.570312 466.339844 34.382812 C 462.136719 31.195312 462.261719 27.699219 466.683594 24.542969 C 471.101562 21.382812 479.296875 18.9375 489.753906 17.65625 C 494.839844 17.03125 500.164062 16.722656 505.488281 16.722656 C 511.101562 16.722656 516.714844 17.066406 522.039062 17.757812 C 532.402344 19.109375 540.425781 21.605469 544.625 24.792969 C 553.296875 31.371094 542.792969 38.875 521.210938 41.523438 Z M 521.210938 41.523438 "/>
<path style=" stroke:none;fill-rule:nonzero;fill:rgb(96.078431%,78.431373%,29.803922%);fill-opacity:1;" d="M 464.953125 47.980469 L 380.992188 39.738281 C 376.152344 39.261719 371 40.125 369.71875 41.628906 L 355.863281 57.859375 C 354.695312 59.226562 357.199219 60.640625 361.597656 61.09375 L 390.144531 64.027344 C 392.710938 64.292969 393.886719 65.199219 392.597656 65.925781 L 340.75 90.304688 C 337.460938 92.164062 339.914062 94.402344 346.140625 95.324219 C 359.867188 97.351562 389.507812 100.511719 410.667969 100.171875 C 417.234375 100.066406 423.167969 98.941406 426.273438 97.175781 L 485.574219 62.554688 C 495.421875 57.28125 484.234375 49.820312 464.953125 47.980469 Z M 464.953125 47.980469 "/>
<path style=" stroke:none;fill-rule:nonzero;fill:rgb(98.823529%,63.529412%,39.607843%);fill-opacity:1;" d="M 524.964844 74.160156 L 489.054688 57.277344 C 489.640625 59.09375 488.621094 60.925781 485.585938 62.554688 L 450.019531 83.316406 L 463.253906 89.722656 C 466.417969 91.253906 473.367188 91.5625 477.820312 90.347656 L 523.308594 77.945312 C 526.839844 76.980469 527.546875 75.371094 524.964844 74.160156 Z M 524.964844 74.160156 "/>
<path style=" stroke:none;fill-rule:nonzero;fill:rgb(97.647059%,81.568627%,70.588235%);fill-opacity:1;" d="M 624.855469 80.796875 L 523.027344 80.226562 L 520.113281 78.8125 L 478.15625 90.253906 L 484.054688 93.109375 C 489.039062 95.523438 497.671875 97.007812 507.027344 97.058594 L 623.835938 97.710938 C 624.777344 97.71875 625.703125 97.707031 626.617188 97.6875 C 640.660156 97.339844 651.828125 93.792969 652.09375 89.410156 C 652.375 84.738281 640.179688 80.882812 624.855469 80.796875 Z M 624.855469 80.796875 "/>
<path style=" stroke:none;fill-rule:nonzero;fill:rgb(97.647059%,81.568627%,70.588235%);fill-opacity:1;" d="M 352.195312 40.320312 C 343.164062 39.429688 333.261719 40 325.910156 41.828125 L 234.726562 64.542969 C 222.765625 67.523438 220.988281 72.894531 230.761719 76.539062 C 236.808594 78.796875 245.847656 79.863281 254.699219 79.644531 C 260.160156 79.511719 265.546875 78.886719 270.113281 77.75 L 349.5 57.976562 L 355.617188 58.578125 C 355.605469 58.339844 355.660156 58.097656 355.863281 57.855469 L 369.386719 42.011719 Z M 352.195312 40.320312 "/>
<path style=" stroke:none;fill-rule:nonzero;fill:rgb(98.823529%,63.529412%,39.607843%);fill-opacity:1;" d="M 380.996094 39.738281 C 376.15625 39.261719 371 40.125 369.722656 41.628906 L 355.867188 57.859375 C 354.699219 59.226562 357.203125 60.640625 361.601562 61.09375 L 390.148438 64.027344 C 391.941406 64.210938 393.03125 64.710938 393.101562 65.242188 L 408.550781 62.855469 C 427.402344 59.941406 442.4375 55.160156 451.179688 49.292969 L 454.640625 46.96875 Z M 380.996094 39.738281 "/>
<path style=" stroke:none;fill-rule:nonzero;fill:rgb(0%,0%,0%);fill-opacity:1;" d="M 494.210938 53.5 C 489.339844 49.726562 479.304688 46.796875 467.378906 45.652344 L 383.453125 37.414062 C 379.0625 36.984375 374.222656 37.125 370.171875 37.800781 C 366.125 38.480469 363.136719 39.648438 361.976562 41.011719 L 348.125 57.242188 C 345.90625 59.839844 350.707031 62.546875 359.050781 63.40625 L 383.15625 65.882812 L 334.042969 88.976562 C 333.921875 89.03125 333.8125 89.085938 333.710938 89.144531 C 331.089844 90.625 330.570312 92.3125 332.242188 93.894531 C 333.933594 95.488281 337.632812 96.777344 342.660156 97.519531 C 357.042969 99.644531 385.40625 102.632812 407.488281 102.632812 C 408.710938 102.632812 409.917969 102.625 411.097656 102.605469 C 420.441406 102.457031 428.964844 100.816406 433.382812 98.304688 L 492.542969 63.761719 C 498.148438 60.757812 498.753906 57.019531 494.210938 53.5 Z M 478.484375 61.421875 L 419.226562 96.019531 C 417.449219 97.03125 414.097656 97.667969 410.257812 97.730469 C 390.929688 98.035156 362.8125 95.070312 349.648438 93.128906 C 348.585938 92.96875 347.816406 92.710938 347.484375 92.394531 C 347.273438 92.191406 347.144531 91.882812 347.695312 91.53125 L 399.324219 67.253906 C 399.441406 67.199219 399.550781 67.140625 399.65625 67.082031 C 401.394531 66.101562 401.617188 64.945312 400.273438 63.90625 C 398.933594 62.867188 396.175781 62.070312 392.710938 61.714844 L 364.167969 58.777344 C 363.753906 58.734375 363.511719 58.601562 363.625 58.472656 L 377.476562 42.242188 C 377.535156 42.171875 377.675781 42.117188 377.886719 42.082031 C 378.09375 42.046875 378.316406 42.039062 378.546875 42.0625 L 462.503906 50.304688 C 462.523438 50.304688 462.546875 50.308594 462.570312 50.308594 C 469.933594 51.011719 476.191406 52.875 479.316406 55.289062 C 482.066406 57.429688 481.816406 59.632812 478.484375 61.421875 Z M 478.484375 61.421875 "/>
<path style=" stroke:none;fill-rule:nonzero;fill:rgb(0%,0%,0%);fill-opacity:1;" d="M 531.683594 72.828125 L 496.351562 56.21875 C 493.949219 55.089844 488.992188 54.765625 485.277344 55.5 C 481.566406 56.234375 480.511719 57.746094 482.914062 58.878906 L 518.246094 75.488281 C 518.683594 75.691406 518.566406 75.960938 517.96875 76.125 L 472.480469 88.527344 C 472.019531 88.652344 471.527344 88.664062 471.179688 88.648438 C 470.835938 88.632812 470.359375 88.582031 470.03125 88.421875 L 457.6875 82.445312 C 455.332031 81.304688 450.386719 80.960938 446.644531 81.679688 C 442.902344 82.398438 441.777344 83.90625 444.132812 85.046875 L 456.476562 91.023438 C 459.25 92.367188 463.792969 93.265625 468.949219 93.484375 C 469.773438 93.519531 470.597656 93.539062 471.417969 93.539062 C 475.726562 93.539062 479.898438 93.054688 483.15625 92.167969 L 528.640625 79.765625 C 535.164062 77.984375 536.445312 75.070312 531.683594 72.828125 Z M 531.683594 72.828125 "/>
<path style=" stroke:none;fill-rule:nonzero;fill:rgb(0%,0%,0%);fill-opacity:1;" d="M 650.089844 81.6875 C 643.464844 79.59375 634.550781 78.410156 625.003906 78.355469 L 527.5 77.808594 L 527.402344 77.761719 C 525.046875 76.621094 520.105469 76.277344 516.359375 76.996094 C 512.617188 77.714844 511.496094 79.222656 513.847656 80.363281 L 516.25 81.523438 C 517.6875 82.222656 520.179688 82.648438 522.882812 82.664062 L 624.707031 83.238281 C 629.980469 83.265625 634.902344 83.917969 638.558594 85.078125 C 642.21875 86.234375 644.179688 87.757812 644.085938 89.363281 C 643.898438 92.472656 636.113281 95.003906 625.964844 95.253906 C 625.316406 95.269531 624.667969 95.277344 623.984375 95.273438 L 507.171875 94.617188 C 500.496094 94.582031 494.386719 93.53125 490.828125 91.808594 L 485.429688 89.195312 C 483.074219 88.054688 478.128906 87.710938 474.390625 88.429688 C 470.648438 89.148438 469.523438 90.65625 471.882812 91.796875 L 477.273438 94.410156 C 483.71875 97.53125 494.785156 99.433594 506.878906 99.5 L 623.675781 100.152344 C 623.921875 100.15625 624.160156 100.15625 624.402344 100.15625 C 625.367188 100.15625 626.324219 100.144531 627.265625 100.121094 C 645.644531 99.667969 659.761719 95.082031 660.097656 89.453125 C 660.273438 86.542969 656.71875 83.785156 650.089844 81.6875 Z M 650.089844 81.6875 "/>
<path style=" stroke:none;fill-rule:nonzero;fill:rgb(0%,0%,0%);fill-opacity:1;" d="M 370.265625 39.53125 L 354.652344 37.996094 C 342.976562 36.84375 330.335938 37.570312 320.839844 39.9375 L 229.65625 62.652344 C 214.296875 66.476562 212.011719 73.402344 224.5625 78.085938 C 231.425781 80.648438 241.683594 82.113281 252.445312 82.113281 C 253.410156 82.113281 254.378906 82.101562 255.351562 82.078125 C 262.644531 81.898438 269.5 81.054688 275.179688 79.640625 L 351.191406 60.707031 L 351.945312 60.78125 C 356.148438 61.195312 360.667969 60.492188 362.027344 59.207031 C 363.386719 57.925781 361.078125 56.546875 356.871094 56.132812 L 351.960938 55.652344 C 349.382812 55.394531 346.539062 55.558594 344.433594 56.082031 L 265.050781 75.859375 C 261.898438 76.644531 258.09375 77.109375 254.054688 77.210938 C 247.503906 77.371094 241.113281 76.542969 236.964844 74.996094 C 230 72.398438 231.269531 68.554688 239.789062 66.433594 L 330.976562 43.71875 C 336.25 42.40625 343.257812 42.003906 349.734375 42.640625 L 365.34375 44.179688 C 369.542969 44.597656 374.0625 43.890625 375.421875 42.605469 C 376.785156 41.324219 374.472656 39.945312 370.265625 39.53125 Z M 370.265625 39.53125 "/>
<path style=" stroke:none;fill-rule:nonzero;fill:rgb(0%,0%,0%);fill-opacity:1;" d="M 457.644531 44.953125 C 453.625 44.394531 448.875 44.9375 447.039062 46.164062 L 443.890625 48.28125 C 435.933594 53.621094 422.09375 58.023438 404.933594 60.675781 L 389.984375 62.984375 C 386.039062 63.59375 384.460938 65.0625 386.460938 66.265625 C 387.871094 67.117188 390.6875 67.605469 393.609375 67.605469 C 394.828125 67.605469 396.0625 67.519531 397.222656 67.339844 L 412.171875 65.03125 C 432.570312 61.878906 449.011719 56.648438 458.472656 50.300781 L 461.621094 48.183594 C 463.449219 46.957031 461.667969 45.511719 457.644531 44.953125 Z M 457.644531 44.953125 "/>
<path style=" stroke:none;fill-rule:nonzero;fill:rgb(98.823529%,39.607843%,49.411765%);fill-opacity:1;" d="M 241.894531 181.929688 C 236.277344 179.285156 231.214844 175.570312 229.929688 172.140625 L 227.109375 164.589844 C 226.421875 162.753906 222.601562 161.164062 217.0625 160.410156 L 196.855469 157.660156 C 189.546875 156.664062 186.101562 154.074219 189.179688 151.820312 C 190.175781 151.09375 191.367188 150.449219 192.214844 149.945312 C 194.246094 148.734375 191.0625 147.304688 186.539062 147.464844 L 147.757812 151.714844 C 142.140625 152.632812 140.636719 154.6875 144.179688 156.246094 L 197.519531 179.710938 C 212.535156 186.316406 228.667969 186.207031 235.226562 185.816406 C 241.433594 185.449219 245.042969 183.414062 241.894531 181.929688 Z M 241.894531 181.929688 "/>
<path style=" stroke:none;fill-rule:nonzero;fill:rgb(0%,0%,0%);fill-opacity:1;" d="M 248.617188 180.605469 C 243.03125 177.972656 238.921875 174.625 237.886719 171.863281 L 235.066406 164.316406 C 234.066406 161.632812 228.417969 159.285156 220.328125 158.179688 L 200.117188 155.429688 C 196.773438 154.976562 195.183594 153.78125 196.574219 152.765625 C 197.207031 152.300781 197.992188 151.847656 198.683594 151.445312 L 199.34375 151.058594 C 201.640625 149.695312 201.285156 148.0625 198.421875 146.804688 C 195.554688 145.539062 190.652344 144.859375 185.632812 145.042969 C 185.023438 145.0625 184.421875 145.105469 183.835938 145.171875 L 145.058594 149.421875 C 144.6875 149.460938 144.332031 149.507812 143.988281 149.566406 C 139.335938 150.324219 135.976562 151.632812 134.773438 153.152344 C 133.5625 154.679688 134.59375 156.316406 137.605469 157.640625 L 190.949219 181.101562 C 204.875 187.226562 220.269531 188.40625 230.066406 188.40625 C 232.78125 188.40625 235.066406 188.316406 236.773438 188.21875 C 242.621094 187.867188 247.476562 186.679688 249.765625 185.042969 C 251.84375 183.546875 251.429688 181.929688 248.617188 180.605469 Z M 233.703125 183.421875 C 228.9375 183.707031 216.515625 183.773438 204.109375 178.320312 L 150.769531 154.855469 C 150.234375 154.621094 150.238281 154.421875 150.339844 154.296875 C 150.449219 154.15625 150.738281 154.03125 151.191406 153.9375 L 182.304688 150.523438 C 182.132812 150.640625 181.964844 150.761719 181.796875 150.882812 C 177.089844 154.324219 182.386719 158.363281 193.601562 159.890625 L 213.804688 162.636719 C 216.742188 163.039062 218.796875 163.890625 219.15625 164.867188 L 221.980469 172.414062 C 223.28125 175.894531 228.128906 179.902344 234.976562 183.160156 C 234.8125 183.246094 234.410156 183.378906 233.703125 183.421875 Z M 233.703125 183.421875 "/>
<path style=" stroke:none;fill-rule:nonzero;fill:rgb(98.823529%,39.607843%,49.411765%);fill-opacity:1;" d="M 415.648438 178.554688 C 409.550781 176.011719 403.804688 172.390625 401.886719 168.984375 L 397.667969 161.5 C 396.640625 159.675781 392.535156 158.15625 386.863281 157.5 L 366.179688 155.101562 C 358.699219 154.234375 354.773438 151.707031 357.429688 149.40625 C 358.289062 148.660156 359.359375 147.996094 360.109375 147.476562 C 361.910156 146.234375 358.472656 144.867188 353.984375 145.101562 L 316.054688 150.015625 C 310.617188 151.027344 309.5 153.105469 313.328125 154.601562 L 370.945312 177.101562 C 387.164062 183.4375 403.25 183.054688 409.722656 182.550781 C 415.847656 182.078125 419.066406 179.980469 415.648438 178.554688 Z M 415.648438 178.554688 "/>
<path style=" stroke:none;fill-rule:nonzero;fill:rgb(0%,0%,0%);fill-opacity:1;" d="M 422.113281 177.113281 C 416.046875 174.582031 411.320312 171.3125 409.777344 168.574219 L 405.558594 161.082031 C 404.058594 158.421875 397.984375 156.175781 389.707031 155.214844 L 369.019531 152.820312 C 365.59375 152.421875 363.785156 151.253906 364.984375 150.214844 C 365.527344 149.746094 366.222656 149.28125 366.835938 148.871094 L 367.429688 148.464844 C 369.46875 147.0625 368.8125 145.441406 365.71875 144.230469 C 362.621094 143.019531 357.605469 142.433594 352.621094 142.695312 C 352.015625 142.726562 351.421875 142.78125 350.859375 142.855469 L 312.929688 147.765625 C 312.570312 147.8125 312.222656 147.867188 311.886719 147.929688 C 307.382812 148.769531 304.269531 150.132812 303.351562 151.671875 C 302.429688 153.21875 303.765625 154.832031 307.015625 156.101562 L 364.632812 178.605469 C 378.632812 184.074219 393.105469 185.242188 402.933594 185.242188 C 406.589844 185.242188 409.601562 185.082031 411.707031 184.917969 C 417.484375 184.46875 422.113281 183.199219 424.089844 181.523438 C 425.882812 179.992188 425.167969 178.386719 422.113281 177.113281 Z M 407.75 180.1875 C 403.039062 180.546875 390.648438 180.835938 377.253906 175.601562 L 319.636719 153.101562 C 319.058594 152.875 319.027344 152.675781 319.105469 152.546875 C 319.191406 152.40625 319.453125 152.277344 319.886719 152.171875 L 350.316406 148.230469 C 350.164062 148.351562 350.019531 148.472656 349.875 148.59375 C 345.816406 152.113281 351.855469 156.054688 363.332031 157.382812 L 384.015625 159.78125 C 387.023438 160.128906 389.230469 160.945312 389.777344 161.910156 L 393.992188 169.398438 C 395.9375 172.851562 401.527344 176.773438 408.964844 179.90625 C 408.820312 179.992188 408.445312 180.132812 407.75 180.1875 Z M 407.75 180.1875 "/>
<path style=" stroke:none;fill-rule:nonzero;fill:rgb(0%,0%,0%);fill-opacity:1;" d="M 523.660156 117.660156 C 521.796875 113.417969 513.488281 109.863281 501.503906 108.164062 L 480.140625 105.066406 C 476.144531 104.484375 471.367188 105.003906 469.46875 106.222656 C 467.570312 107.4375 469.265625 108.894531 473.257812 109.476562 L 494.6875 112.585938 C 501.753906 113.585938 506.648438 115.726562 507.78125 118.308594 C 509.171875 121.472656 504.878906 124.597656 496.082031 126.863281 L 382.875 155.332031 C 379.464844 156.191406 378.980469 157.730469 381.792969 158.769531 C 383.378906 159.355469 385.664062 159.65625 387.976562 159.65625 C 389.769531 159.65625 391.574219 159.476562 393.066406 159.101562 L 506.335938 130.609375 C 519.285156 127.28125 525.757812 122.441406 523.660156 117.660156 Z M 523.660156 117.660156 "/>
<path style=" stroke:none;fill-rule:nonzero;fill:rgb(0%,0%,0%);fill-opacity:1;" d="M 444.761719 123.378906 C 443.980469 122.128906 441.160156 121.128906 437.222656 120.703125 C 434.8125 120.445312 431.816406 120.109375 428.550781 119.738281 C 424.410156 119.269531 419.796875 119.914062 418.25 121.175781 C 416.707031 122.441406 418.816406 123.84375 422.964844 124.316406 C 423.617188 124.390625 424.253906 124.460938 424.882812 124.535156 L 354.15625 143.40625 C 350.828125 144.292969 350.492188 145.835938 353.402344 146.851562 C 354.988281 147.402344 357.207031 147.683594 359.433594 147.683594 C 361.304688 147.683594 363.183594 147.484375 364.703125 147.078125 L 440.992188 126.722656 C 444.089844 125.894531 445.539062 124.613281 444.761719 123.378906 Z M 444.761719 123.378906 "/>
<path style=" stroke:none;fill-rule:nonzero;fill:rgb(0%,0%,0%);fill-opacity:1;" d="M 482.722656 106.242188 C 482.011719 104.917969 479.203125 103.796875 475.371094 103.265625 L 428.554688 96.351562 C 424.578125 95.765625 419.789062 96.269531 417.855469 97.484375 C 415.929688 98.695312 417.589844 100.15625 421.574219 100.742188 L 464.730469 107.117188 L 420.8125 119.625 C 419.636719 119.960938 417.96875 120.066406 416.664062 119.921875 L 351.875 112.097656 C 351.722656 112.078125 351.570312 112.0625 351.410156 112.046875 C 341.929688 111.105469 334.183594 108.632812 331.195312 105.59375 C 328.597656 102.949219 330.0625 100.304688 335.214844 98.332031 L 345.457031 94.417969 C 348.214844 93.363281 347.648438 91.828125 344.1875 90.984375 C 340.730469 90.144531 335.695312 90.316406 332.9375 91.371094 L 322.695312 95.289062 C 314.21875 98.527344 311.726562 102.796875 315.855469 106.992188 C 320.300781 111.515625 331.910156 115.214844 346.195312 116.664062 L 410.972656 124.484375 C 413.253906 124.738281 415.609375 124.859375 417.945312 124.859375 C 422.980469 124.859375 427.910156 124.285156 431.746094 123.191406 L 478.722656 109.8125 C 481.9375 108.898438 483.433594 107.5625 482.722656 106.242188 Z M 482.722656 106.242188 "/>
<path style=" stroke:none;fill-rule:nonzero;fill:rgb(0%,0%,0%);fill-opacity:1;" d="M 382.882812 116.523438 C 379.542969 115.636719 374.484375 115.746094 371.589844 116.765625 L 336.191406 129.132812 L 290.113281 120.023438 L 328.507812 103.28125 C 331.042969 102.175781 330.160156 100.65625 326.535156 99.882812 C 322.917969 99.109375 317.917969 99.378906 315.386719 100.484375 L 276.992188 117.226562 C 274.445312 118.332031 273.519531 119.671875 274.375 121 C 275.230469 122.328125 277.753906 123.464844 281.484375 124.195312 L 327.515625 133.238281 C 330.1875 133.765625 333.222656 134.019531 336.246094 134.019531 C 340.8125 134.019531 345.339844 133.4375 348.492188 132.328125 L 383.683594 119.96875 C 386.578125 118.949219 386.222656 117.40625 382.882812 116.523438 Z M 382.882812 116.523438 "/>
<path style=" stroke:none;fill-rule:nonzero;fill:rgb(0%,0%,0%);fill-opacity:1;" d="M 336.960938 129.953125 C 333.59375 129.078125 328.535156 129.203125 325.675781 130.230469 L 320.058594 132.25 C 313.988281 134.4375 307.113281 136.429688 299.621094 138.171875 L 213.257812 158.226562 C 209.738281 159.042969 209.058594 160.574219 211.738281 161.648438 C 213.316406 162.277344 215.703125 162.609375 218.117188 162.609375 C 219.808594 162.609375 221.515625 162.445312 222.964844 162.109375 L 309.324219 142.054688 C 317.742188 140.101562 325.46875 137.863281 332.289062 135.402344 L 337.882812 133.390625 C 340.742188 132.367188 340.332031 130.824219 336.960938 129.953125 Z M 336.960938 129.953125 "/>
<path style=" stroke:none;fill-rule:nonzero;fill:rgb(0%,0%,0%);fill-opacity:1;" d="M 287.414062 119.917969 C 283.78125 119.148438 278.792969 119.421875 276.265625 120.527344 L 274.597656 121.257812 C 271.296875 122.703125 267.390625 124.019531 262.984375 125.164062 L 185.183594 145.386719 C 181.820312 146.261719 181.417969 147.804688 184.289062 148.828125 C 185.875 149.394531 188.121094 149.6875 190.382812 149.6875 C 192.222656 149.6875 194.066406 149.496094 195.578125 149.101562 L 273.378906 128.878906 C 278.828125 127.460938 283.664062 125.835938 287.746094 124.046875 L 289.414062 123.316406 C 291.9375 122.210938 291.042969 120.6875 287.414062 119.917969 Z M 287.414062 119.917969 "/>
<path style=" stroke:none;fill-rule:nonzero;fill:rgb(0%,0%,0%);fill-opacity:1;" d="M 245.148438 153.21875 C 235.125 149.785156 221.269531 145.070312 212.167969 142.097656 C 209.15625 141.113281 204.085938 141.058594 200.851562 141.976562 C 197.617188 142.898438 197.445312 144.441406 200.460938 145.429688 C 209.457031 148.367188 223.222656 153.050781 233.1875 156.460938 C 234.769531 157.003906 236.96875 157.28125 239.171875 157.28125 C 241.0625 157.28125 242.964844 157.078125 244.496094 156.664062 C 247.796875 155.765625 248.089844 154.222656 245.148438 153.21875 Z M 245.148438 153.21875 "/>
<path style=" stroke:none;fill-rule:nonzero;fill:rgb(0%,0%,0%);fill-opacity:1;" d="M 413.074219 150.222656 C 402.707031 146.707031 392.304688 143.195312 382.210938 139.800781 C 379.242188 138.800781 374.179688 138.722656 370.902344 139.632812 C 367.625 140.539062 367.378906 142.082031 370.347656 143.078125 C 380.425781 146.46875 390.8125 149.976562 401.167969 153.488281 C 402.75 154.023438 404.933594 154.296875 407.125 154.296875 C 409.03125 154.296875 410.949219 154.089844 412.476562 153.671875 C 415.765625 152.769531 416.035156 151.226562 413.074219 150.222656 Z M 413.074219 150.222656 "/>
<path style=" stroke:none;fill-rule:nonzero;fill:rgb(0%,0%,0%);fill-opacity:1;" d="M 763.835938 125.167969 C 760.039062 124.136719 755.003906 123.714844 750 124 L 607.820312 132.269531 C 601.714844 132.621094 596.882812 133.976562 595.222656 135.804688 C 593.566406 137.632812 595.417969 139.554688 600.058594 140.816406 L 635.074219 150.433594 L 471.777344 202.730469 C 470.839844 203.03125 469.523438 203.203125 468.167969 203.203125 L 243 203.203125 C 232.789062 203.203125 223.035156 204.171875 214.796875 206.007812 L 64.515625 239.496094 C 56.535156 241.273438 54.054688 244.632812 58.867188 247.140625 C 61.4375 248.484375 65.5625 249.4375 70.484375 249.820312 C 72.050781 249.941406 73.636719 250.003906 75.210938 250.003906 C 78.589844 250.003906 81.910156 249.726562 84.886719 249.179688 L 240.078125 220.792969 C 241.414062 220.546875 242.949219 220.429688 244.511719 220.457031 L 476.871094 224.089844 C 494.980469 224.367188 512.847656 222.328125 525.871094 218.476562 L 698.402344 167.578125 L 731.402344 176.554688 C 736.042969 177.820312 742.511719 178.160156 748.277344 177.453125 C 754.042969 176.742188 757.917969 175.125 758.382812 173.238281 L 769.214844 129.230469 C 769.59375 127.683594 767.636719 126.203125 763.835938 125.167969 Z M 742.398438 172.902344 L 742.066406 172.914062 L 709.066406 163.933594 C 702.757812 162.21875 693.050781 162.277344 686.976562 164.074219 L 514.726562 214.972656 C 504.882812 217.882812 491.402344 219.425781 477.695312 219.210938 L 245.332031 215.578125 C 240.578125 215.511719 235.90625 215.859375 231.832031 216.609375 L 76.652344 244.992188 C 75.761719 245.15625 74.90625 245.125 74.464844 245.089844 C 73.9375 245.050781 73.203125 244.945312 72.699219 244.679688 C 72 244.316406 72.578125 243.746094 73.964844 243.4375 L 224.246094 209.953125 C 229.726562 208.730469 236.207031 208.085938 243 208.085938 L 468.164062 208.085938 C 473.878906 208.085938 479.421875 207.363281 483.367188 206.097656 L 646.667969 153.800781 C 649.722656 152.824219 651.308594 151.539062 651.128906 150.191406 C 650.949219 148.839844 649.03125 147.601562 645.722656 146.699219 L 610.644531 137.152344 L 610.816406 137.066406 L 752.996094 128.800781 L 753.242188 128.867188 Z M 742.398438 172.902344 "/>
<path style=" stroke:none;fill-rule:nonzero;fill:rgb(96.078431%,78.431373%,29.803922%);fill-opacity:1;" d="M 369.085938 19.554688 C 354.671875 18.773438 343.460938 15.355469 340.578125 11.058594 C 340.578125 10.863281 339.296875 10.863281 339.296875 11.058594 C 336.414062 15.355469 325.203125 18.773438 310.789062 19.554688 C 310.148438 19.554688 310.148438 19.847656 310.789062 19.945312 C 325.203125 20.726562 336.414062 24.144531 339.296875 28.441406 C 339.296875 28.636719 340.578125 28.636719 340.578125 28.441406 C 343.460938 24.144531 354.671875 20.726562 369.085938 19.945312 C 369.726562 19.847656 369.726562 19.554688 369.085938 19.554688 Z M 369.085938 19.554688 "/>
<path style=" stroke:none;fill-rule:nonzero;fill:rgb(52.941176%,81.960784%,27.843137%);fill-opacity:1;" d="M 685.128906 111.410156 C 674.90625 110.855469 666.953125 108.429688 664.90625 105.382812 C 664.90625 105.242188 664 105.242188 664 105.382812 C 661.953125 108.429688 654 110.855469 643.777344 111.410156 C 643.320312 111.410156 643.320312 111.617188 643.777344 111.6875 C 654 112.242188 661.953125 114.664062 664 117.714844 C 664 117.851562 664.90625 117.851562 664.90625 117.714844 C 666.953125 114.664062 674.90625 112.242188 685.128906 111.6875 C 685.582031 111.617188 685.582031 111.410156 685.128906 111.410156 Z M 685.128906 111.410156 "/>
<path style=" stroke:none;fill-rule:nonzero;fill:rgb(98.823529%,39.607843%,49.411765%);fill-opacity:1;" d="M 302.738281 238.378906 L 295.371094 238.378906 L 295.371094 236.132812 C 295.371094 234.375 290.886719 233.007812 285.121094 233.007812 C 279.355469 233.007812 274.871094 234.472656 274.871094 236.132812 L 274.871094 238.378906 L 267.503906 238.378906 C 261.738281 238.378906 257.253906 239.746094 257.253906 241.503906 C 257.253906 243.261719 262.058594 244.628906 267.503906 244.628906 L 274.871094 244.628906 L 274.871094 246.875 C 274.871094 248.632812 279.355469 250 285.121094 250 C 290.886719 250 295.371094 248.535156 295.371094 246.875 L 295.371094 244.628906 L 302.738281 244.628906 C 308.503906 244.628906 312.988281 243.261719 312.988281 241.503906 C 312.988281 239.746094 308.183594 238.378906 302.738281 238.378906 Z M 302.738281 238.378906 "/>
<path style=" stroke:none;fill-rule:nonzero;fill:rgb(43.921569%,83.921569%,97.647059%);fill-opacity:1;" d="M 413.609375 0 C 407.59375 0 402.71875 1.484375 402.71875 3.320312 C 402.71875 5.15625 407.59375 6.640625 413.609375 6.640625 C 419.625 6.640625 424.5 5.15625 424.5 3.320312 C 424.5 1.484375 419.621094 0 413.609375 0 Z M 413.609375 0 "/>
<path style=" stroke:none;fill-rule:nonzero;fill:rgb(96.078431%,78.431373%,29.803922%);fill-opacity:1;" d="M 377.691406 230.296875 C 371.679688 230.296875 366.800781 231.785156 366.800781 233.617188 C 366.800781 235.453125 371.679688 236.9375 377.691406 236.9375 C 383.707031 236.9375 388.582031 235.453125 388.582031 233.617188 C 388.582031 231.785156 383.707031 230.296875 377.691406 230.296875 Z M 377.691406 230.296875 "/>
</g>
</svg>
