<?xml version="1.0" encoding="UTF-8"?>
<svg version="1.1" viewBox="0 0 1000 1000" xmlns="http://www.w3.org/2000/svg">
<rect width="1e3" height="1e3" fill="#fff"/>
<g transform="matrix(.7 0 0 .7 149.58 252.55)">
<svg width="1e3" height="707" data-background-color="#ffffff" viewBox="0 0 396 280" xmlns="http://www.w3.org/2000/svg" xmlns:xlink="http://www.w3.org/1999/xlink">
<g transform="translate(.24)">
<svg width="395.52" height="280" viewBox="0 0 395.52 280">
<svg width="395.52" height="280" viewBox="0 0 395.52 280">
<svg width="395.52" height="280" viewBox="0 0 395.52 280">
<svg width="395.52" height="280" viewBox="0 0 395.52 280">
<svg width="395.52" height="280" viewBox="0 0 395.52 280">
<g transform="translate(81.229 47.294)">
<svg width="233.06" height="185.41" viewBox="0 0 233.06239507908606 185.41282611752857">
<circle cx="116.53" cy="92.706" r="82" fill="#f7d65a" data-fill-palette-color="accent"/>
<svg class="icon-o-0" x="34.959" y="34.959" width="163.14" height="115.49" enable-background="new 0 0 100 100" fill="#fff" data-fill-palette-color="quaternary" version="1.1" viewBox="15.19999885559082 6.699999809265137 70.203857421875 87.29999542236328" xml:space="preserve" xmlns="http://www.w3.org/2000/svg" xmlns:xlink="http://www.w3.org/1999/xlink"><path d="M50.4 6.7c-10.8 0-19.6 8.8-19.6 19.6s8.8 19.6 19.6 19.6S70 37.1 70 26.3 61.2 6.7 50.4 6.7z" data-fill-palette-color="quaternary"/><path d="M68.5 53H32.3c-9.3 0-17.1 7.5-17.1 17v15.8h18.5c-0.7-1.9-1.2-4-1.2-6.1 0-9.5 8-17.3 17.8-17.3s17.8 7.7 17.8 17.3c0 2.2-0.4 4.2-1.2 6.1h18.5V70C85.6 60.5 78 53 68.5 53z" data-fill-palette-color="quaternary"/><rect x="48.4" y="74" width="4" height="1.3" data-fill-palette-color="quaternary"/><path d="m50.4 65.6c-7.8 0-14.2 6.3-14.2 14.2 0 7.8 6.3 14.2 14.2 14.2s14.2-6.3 14.2-14.2-6.4-14.2-14.2-14.2zm8.2 20.2c0 0.5-0.4 0.9-0.9 0.9h-14.6c-0.5 0-0.9-0.4-0.9-0.9v-9.6c0-0.5 0.4-0.9 0.9-0.9h4.1v-1.9c0-0.3 0.3-0.6 0.6-0.6h5.2c0.3 0 0.6 0.3 0.6 0.6v1.9h4.1c0.5 0 0.9 0.4 0.9 0.9v9.6z" data-fill-palette-color="quaternary"/></svg>
</svg>
</g>
<path d="m68.001 86.239 1.629-4.621 19.532 6.887-1.034 2.932-11.305-3.986-5.306-2.142-0.011 0.029 14.598 11.838-0.928 2.633-18.794 0.065-0.011 0.029 5.474 1.669 11.304 3.986-1.03 2.922-19.532-6.886 1.659-4.707 12.692 0.05 5.129 0.279 0.02-0.057-4.159-3.028zm11.877-22.178 1.932-3.23 7.161 12.912 6.811 4.074-1.722 2.879-6.811-4.074-14.748-0.23 1.916-3.203 7.632 0.251 3.477 0.185-1.802-2.985zm24.928-9.211 2.849-1.806c0.708 1.116 1.132 2.272 1.272 3.47 0.145 1.201 0.031 2.376-0.343 3.523-0.373 1.157-0.991 2.263-1.854 3.319-1.255 1.537-2.68 2.601-4.272 3.192-1.593 0.592-3.255 0.691-4.986 0.298-1.735-0.387-3.463-1.284-5.184-2.691-1.716-1.402-2.936-2.915-3.662-4.538-0.729-1.617-0.963-3.265-0.701-4.944 0.263-1.679 1.015-3.279 2.258-4.799 0.863-1.056 1.786-1.89 2.771-2.503 0.991-0.608 2.022-0.976 3.095-1.104 1.073-0.117 2.177 0.019 3.312 0.409l-0.907 3.34c-1.223-0.454-2.307-0.556-3.251-0.306-0.948 0.256-1.826 0.877-2.632 1.864-0.807 0.988-1.282 2.048-1.425 3.182-0.143 1.124 0.063 2.256 0.618 3.397 0.556 1.141 1.473 2.234 2.75 3.278 1.268 1.035 2.507 1.727 3.72 2.075 1.217 0.343 2.358 0.342 3.423-3e-3 1.065-0.344 2.016-1.029 2.853-2.053 0.807-0.987 1.25-2.047 1.33-3.179 0.079-1.142-0.266-2.282-1.034-3.421zm10.209-0.8-2.613 2.264-7.654-20.771 3.039-2.631 19.465 10.539-2.682 2.323-13.724-7.705-2.666-1.641-0.07 0.06 1.25 2.787zm5.458-11.912-8.473 7.339-1.788-2.064 8.473-7.339zm-2.113-17.444 7.138-4.499c1.874-1.182 3.66-1.655 5.356-1.418 1.7 0.242 3.052 1.159 4.056 2.751 1.039 1.65 1.287 3.271 0.743 4.863s-1.753 2.979-3.628 4.16l-0.17 0.325-4.058 2.558 4.418 7.008-2.812 1.772zm7.949 6.378 4.118-2.596c1.148-0.724 1.854-1.495 2.119-2.315 0.256-0.822 0.077-1.721-0.538-2.695-0.6-0.952-1.327-1.493-2.183-1.623-0.861-0.126-1.866 0.173-3.013 0.896l-4.119 2.596zm4.417-0.415 1.736-2.654 11.251 5.191-3.27 2.062zm29.994-4.461-14.186 6.078-8.156-19.037 13.781-5.904 1.136 2.651-10.698 4.583 2.348 5.481 8.367-3.585 1.112 2.595-8.367 3.585 2.424 5.659 11.103-4.757zm18.233-4.422-14.954 3.814-5.118-20.068 14.529-3.705 0.712 2.794-11.277 2.876 1.473 5.778 8.82-2.249 0.698 2.735-8.821 2.249 1.522 5.966 11.704-2.984zm1.451-20.702 8.404-0.75c2.207-0.197 4.012 0.196 5.414 1.18 1.403 0.99 2.188 2.423 2.355 4.297 0.173 1.943-0.345 3.498-1.555 4.667s-2.918 1.852-5.126 2.049l-0.299 0.212-4.778 0.426 0.737 8.252-3.311 0.295zm4.167 9.3 4.849-0.432c1.352-0.121 2.332-0.486 2.942-1.095 0.602-0.615 0.852-1.496 0.749-2.644-0.1-1.12-0.501-1.934-1.203-2.439-0.709-0.505-1.739-0.697-3.091-0.576l-4.849 0.433zm4.121 1.645 2.755-1.57 7.647 9.749-3.85 0.344zm14.744-12.017 7.949 0.541c1.482 0.101 2.744 0.45 3.783 1.047 1.039 0.59 1.829 1.385 2.369 2.386 0.54 1.007 0.764 2.187 0.671 3.541-0.09 1.333-0.472 2.466-1.143 3.397-0.672 0.932-1.563 1.62-2.673 2.063-1.11 0.451-2.407 0.626-3.89 0.525l-4.602-0.313-0.524 7.703-3.347-0.227zm2.66 10.309 4.072 0.277c1.483 0.101 2.595-0.134 3.338-0.705 0.736-0.565 1.143-1.433 1.223-2.603 0.081-1.19-0.205-2.115-0.857-2.775-0.658-0.666-1.729-1.05-3.212-1.151l-4.071-0.277zm18.877-7.853 8.221 1.9c2.159 0.499 3.752 1.434 4.778 2.805 1.026 1.378 1.326 2.983 0.903 4.817-0.439 1.9-1.416 3.217-2.929 3.952s-3.35 0.853-5.509 0.354l-0.35 0.108-4.674-1.08-1.865 8.071-3.238-0.748zm1.069 10.136 4.743 1.096c1.322 0.305 2.368 0.263 3.136-0.126 0.764-0.397 1.276-1.157 1.535-2.28 0.253-1.096 0.125-1.993-0.385-2.692-0.517-0.7-1.437-1.203-2.759-1.509l-4.743-1.096zm3.405 2.844 3.107-0.636 4.237 11.644-3.766-0.871zm25.965-3.64c1.852 0.785 3.285 1.86 4.299 3.223 1.014 1.364 1.574 2.931 1.682 4.702 0.114 1.774-0.262 3.681-1.127 5.721-0.868 2.046-1.98 3.645-3.335 4.796-1.348 1.154-2.865 1.839-4.55 2.058-1.685 0.218-3.454-0.065-5.305-0.851-1.827-0.775-3.247-1.844-4.261-3.207-1.014-1.364-1.575-2.931-1.682-4.703-0.114-1.774 0.263-3.684 1.131-5.73 0.865-2.04 1.976-3.635 3.33-4.786 1.349-1.154 2.866-1.84 4.551-2.058 1.685-0.219 3.441 0.06 5.267 0.835zm-1.142 2.692c-1.193-0.506-2.334-0.66-3.425-0.464-1.094 0.188-2.099 0.713-3.013 1.577-0.908 0.866-1.685 2.059-2.329 3.578-0.639 1.506-0.956 2.89-0.951 4.152 0.012 1.264 0.33 2.358 0.952 3.281 0.617 0.921 1.522 1.634 2.714 2.14 1.218 0.517 2.372 0.677 3.463 0.48 1.097-0.193 2.101-0.727 3.011-1.599 0.918-0.87 1.696-2.058 2.335-3.565 0.644-1.519 0.959-2.907 0.945-4.165-8e-3 -1.255-0.325-2.341-0.951-3.258-0.616-0.921-1.534-1.64-2.751-2.157zm11.762 27.435c-1.627-1.063-2.802-2.343-3.526-3.841-0.724-1.499-0.984-3.126-0.782-4.883 0.193-1.755 0.903-3.572 2.129-5.45 1.2-1.839 2.58-3.198 4.139-4.077 1.565-0.875 3.218-1.262 4.959-1.16 1.744 0.097 3.442 0.684 5.092 1.761 1.804 1.178 3.045 2.464 3.722 3.859 0.681 1.389 0.894 3.002 0.639 4.839l-3.408-0.467c0.299-1.181 0.225-2.259-0.221-3.234-0.452-0.979-1.221-1.823-2.306-2.531-1.084-0.708-2.201-1.075-3.349-1.099-1.144-0.031-2.261 0.295-3.349 0.977-1.091 0.672-2.081 1.69-2.972 3.055-0.906 1.387-1.475 2.697-1.709 3.928-0.229 1.235-0.1 2.374 0.384 3.415 0.479 1.037 1.315 1.945 2.509 2.724 0.651 0.425 1.31 0.738 1.977 0.937 0.668 0.2 1.319 0.275 1.954 0.225 0.626-0.047 1.222-0.244 1.79-0.59 0.558-0.344 1.061-0.858 1.509-1.544l0.324-0.496-5.044-3.293 1.492-2.287 7.545 4.926-5.831 8.932-2.107-1.375 2.127-3.595 0.349 0.606c-1.142 0.827-2.397 1.228-3.767 1.205-1.373-0.017-2.796-0.506-4.269-1.467zm24.652-7.732 6.182 5.743c1.623 1.508 2.539 3.112 2.746 4.812 0.203 1.706-0.336 3.248-1.617 4.626-1.327 1.429-2.83 2.085-4.508 1.968-1.679-0.116-3.33-0.929-4.953-2.437l-0.358-0.081-3.514-3.264-5.638 6.069-2.436-2.262zm-4.122 9.321 3.567 3.313c0.994 0.924 1.921 1.408 2.782 1.454 0.86 0.036 1.682-0.369 2.466-1.213 0.766-0.824 1.101-1.666 1.007-2.526-0.099-0.865-0.646-1.759-1.64-2.683l-3.567-3.313zm1.536 4.162 3.011 0.997-2.127 12.207-2.832-2.631zm12.007 27.845-9.513-12.152 16.307-12.767 9.243 11.806-2.271 1.778-7.175-9.165-4.695 3.676 5.611 7.167-2.223 1.74-5.611-7.167-4.848 3.795 7.446 9.511zm23.212-0.954c0.896 1.632 1.363 3.215 1.403 4.748 0.037 1.528-0.313 3.03-1.05 4.508l-2.988-0.939c0.684-1.277 1.019-2.48 1.007-3.609-7e-3 -1.132-0.336-2.292-0.989-3.482-0.485-0.885-1.003-1.545-1.554-1.982s-1.095-0.678-1.634-0.725c-0.542-0.052-1.061 0.057-1.558 0.33-0.567 0.311-0.955 0.781-1.163 1.408-0.202 0.624-0.126 1.543 0.228 2.756l1.197 4.138c0.579 1.976 0.676 3.549 0.29 4.717-0.389 1.162-1.187 2.074-2.395 2.737-1.118 0.613-2.255 0.844-3.411 0.693s-2.25-0.644-3.283-1.477c-1.029-0.827-1.942-1.967-2.739-3.42-0.702-1.279-1.168-2.525-1.397-3.736-0.235-1.209-0.281-2.355-0.136-3.437 0.145-1.083 0.449-2.074 0.912-2.973l3.152 0.918c-0.432 0.743-0.739 1.545-0.92 2.406-0.18 0.862-0.193 1.759-0.039 2.693 0.152 0.928 0.49 1.87 1.014 2.827 0.463 0.843 0.961 1.518 1.497 2.025 0.537 0.499 1.092 0.801 1.664 0.907 0.571 0.107 1.132 9e-3 1.682-0.293 0.532-0.292 0.903-0.728 1.113-1.31 0.203-0.579 0.148-1.416-0.165-2.511l-1.278-4.478c-0.368-1.237-0.526-2.333-0.474-3.287 0.043-0.957 0.286-1.782 0.73-2.477 0.443-0.694 1.059-1.258 1.849-1.69 1.028-0.564 2.11-0.796 3.246-0.696 1.145 0.102 2.26 0.548 3.346 1.337 1.092 0.785 2.04 1.91 2.843 3.374zm8.897 20.273c0.631 1.752 0.847 3.388 0.648 4.909-0.202 1.514-0.781 2.944-1.739 4.289l-2.806-1.393c0.874-1.155 1.393-2.291 1.556-3.407 0.17-1.12 0.025-2.317-0.435-3.594-0.342-0.949-0.75-1.683-1.226-2.2s-0.977-0.84-1.502-0.97c-0.527-0.136-1.057-0.109-1.59 0.083-0.609 0.219-1.065 0.623-1.368 1.21-0.297 0.585-0.365 1.504-0.203 2.758l0.538 4.274c0.264 2.042 0.115 3.61-0.448 4.704-0.565 1.088-1.495 1.865-2.791 2.331-1.2 0.432-2.359 0.484-3.477 0.154-1.119-0.329-2.123-0.986-3.014-1.969-0.888-0.978-1.612-2.246-2.174-3.805-0.494-1.373-0.76-2.676-0.798-3.908-0.044-1.231 0.089-2.369 0.401-3.416 0.311-1.047 0.766-1.979 1.363-2.796l2.971 1.398c-0.543 0.667-0.97 1.411-1.283 2.234s-0.465 1.707-0.458 2.654c5e-3 0.94 0.193 1.924 0.562 2.95 0.326 0.905 0.713 1.649 1.163 2.234 0.454 0.576 0.955 0.96 1.503 1.154s1.117 0.185 1.707-0.027c0.571-0.206 1.005-0.579 1.303-1.121 0.291-0.54 0.367-1.375 0.228-2.507l-0.566-4.622c-0.17-1.279-0.156-2.386 0.044-3.32 0.191-0.939 0.56-1.716 1.106-2.333s1.243-1.078 2.089-1.383c1.104-0.397 2.209-0.458 3.315-0.182 1.116 0.28 2.148 0.893 3.098 1.841 0.956 0.946 1.717 2.205 2.283 3.776zm-239.95 94.936 1.628 4.62-19.532 6.886-1.033-2.932 11.304-3.986 5.477-1.659-0.01-0.029-18.795-0.065-0.928-2.633 14.598-11.838-0.01-0.029-5.31 2.132-11.305 3.986-1.03-2.923 19.532-6.886 1.659 4.707-9.917 7.921-4.169 2.999 0.02 0.058 5.139-0.25zm9.692 17.524 1.932 3.23-14.764 0.203-6.811 4.074-1.722-2.878 6.811-4.075 7.177-12.885 1.916 3.203-3.83 6.606-1.808 2.976 3.482-0.176zm0.849 24.052 1.202 3.152c-1.234 0.472-2.452 0.657-3.653 0.555-1.207-0.097-2.335-0.443-3.385-1.038-1.059-0.596-2.02-1.422-2.883-2.478-1.256-1.536-2.014-3.144-2.277-4.822-0.262-1.679-0.029-3.327 0.701-4.945 0.726-1.623 1.949-3.138 3.67-4.544 1.716-1.402 3.441-2.297 5.176-2.685 1.731-0.393 3.393-0.293 4.985 0.298 1.593 0.592 3.011 1.648 4.253 3.168 0.863 1.056 1.497 2.128 1.901 3.215 0.399 1.092 0.554 2.176 0.465 3.252-0.098 1.076-0.452 2.13-1.06 3.164l-3.092-1.554c0.688-1.108 1.004-2.149 0.947-3.124-0.062-0.98-0.496-1.964-1.303-2.951-0.806-0.988-1.751-1.664-2.834-2.03-1.072-0.365-2.223-0.388-3.452-0.071s-2.482 0.998-3.76 2.042c-1.267 1.035-2.192 2.113-2.774 3.231-0.579 1.125-0.805 2.243-0.68 3.356 0.126 1.112 0.607 2.181 1.444 3.205 0.807 0.987 1.757 1.633 2.851 1.936 1.103 0.305 2.289 0.194 3.558-0.332zm1.934 11.027-2.613-2.263 19.465-10.539 3.038 2.632-7.653 20.77-2.682-2.323 5.668-14.683 1.244-2.873-0.07-0.06-2.58 1.635zm12.569 3.703-8.473-7.339 1.788-2.064 8.473 7.339zm14.768-7.973 7.138 4.499c1.875 1.181 3.071 2.589 3.59 4.221 0.515 1.638 0.271 3.253-0.733 4.845-1.04 1.65-2.395 2.573-4.066 2.769s-3.444-0.297-5.318-1.478l-0.367-0.014-4.058-2.557-4.417 7.008-2.812-1.773zm-2.325 9.923 4.119 2.595c1.147 0.724 2.148 1.028 3.002 0.914 0.852-0.124 1.585-0.674 2.2-1.648 0.6-0.952 0.774-1.842 0.522-2.67-0.258-0.831-0.961-1.609-2.109-2.332l-4.118-2.596zm2.28 3.806 3.143 0.422 0.17 12.389-3.271-2.061zm22.506 20.958-14.186-6.078 8.157-19.036 13.781 5.904-1.136 2.651-10.698-4.583-2.348 5.481 8.367 3.584-1.112 2.595-8.367-3.585-2.424 5.659 11.102 4.757zm20.536 5.204-14.954-3.814 5.117-20.068 14.529 3.705-0.713 2.794-11.278-2.876-1.473 5.778 8.82 2.249-0.698 2.736-8.82-2.25-1.521 5.966 11.704 2.985zm7.616-20.13 8.404 0.75c2.207 0.197 3.913 0.904 5.119 2.12 1.205 1.224 1.724 2.772 1.557 4.647-0.174 1.942-0.959 3.381-2.357 4.318-1.398 0.936-3.201 1.305-5.408 1.108l-0.332 0.156-4.778-0.427-0.736 8.252-3.311-0.296zm2.454 9.891 4.849 0.433c1.351 0.121 2.381-0.065 3.089-0.556 0.701-0.499 1.103-1.322 1.206-2.47 0.1-1.12-0.151-1.991-0.753-2.613-0.608-0.623-1.588-0.994-2.94-1.115l-4.848-0.433zm3.764 2.349 2.99-1.058 5.799 10.95-3.85-0.344zm12.778-11.211 7.949-0.541c1.483-0.101 2.779 0.074 3.89 0.524 1.11 0.444 2 1.125 2.671 2.043 0.671 0.925 1.053 2.064 1.145 3.418 0.091 1.333-0.133 2.507-0.673 3.521-0.539 1.013-1.328 1.816-2.368 2.406-1.039 0.597-2.3 0.946-3.783 1.047l-4.602 0.313 0.525 7.704-3.347 0.228zm4.033 9.853 4.072-0.277c1.483-0.101 2.553-0.485 3.212-1.151 0.652-0.66 0.938-1.574 0.859-2.745-0.081-1.19-0.49-2.068-1.225-2.633-0.743-0.571-1.856-0.806-3.339-0.705l-4.071 0.277zm13.458-11.708 8.221-1.9c2.159-0.499 4.001-0.358 5.525 0.424 1.526 0.788 2.501 2.099 2.924 3.932 0.439 1.9 0.14 3.512-0.897 4.837-1.038 1.324-2.636 2.236-4.795 2.735l-0.268 0.251-4.673 1.08 1.865 8.071-3.238 0.748zm5.408 8.638 4.743-1.096c1.322-0.305 2.243-0.802 2.763-1.489 0.512-0.692 0.638-1.599 0.379-2.722-0.253-1.096-0.763-1.846-1.528-2.25-0.771-0.403-1.818-0.451-3.14-0.146l-4.744 1.097zm4.308 1.062 2.513-1.935 8.916 8.605-3.766 0.87zm16.22-18.24c1.852-0.786 3.62-1.069 5.305-0.851s3.202 0.904 4.551 2.058c1.355 1.151 2.465 2.746 3.33 4.786 0.868 2.046 1.245 3.956 1.132 5.73-0.108 1.772-0.669 3.339-1.683 4.703-1.014 1.363-2.447 2.437-4.298 3.223-1.827 0.775-3.583 1.053-5.268 0.835-1.685-0.219-3.201-0.904-4.55-2.058-1.355-1.151-2.466-2.75-3.334-4.796-0.866-2.04-1.242-3.947-1.128-5.721 0.108-1.771 0.669-3.338 1.683-4.702 1.014-1.363 2.434-2.432 4.26-3.207zm1.143 2.692c-1.193 0.506-2.097 1.22-2.714 2.141-0.626 0.917-0.946 2.004-0.96 3.262-8e-3 1.255 0.31 2.642 0.954 4.161 0.639 1.507 1.414 2.696 2.325 3.569 0.918 0.87 1.925 1.402 3.022 1.595 1.09 0.197 2.232 0.042 3.424-0.464 1.218-0.516 2.135-1.235 2.752-2.156 0.623-0.923 0.937-2.016 0.942-3.277 0.012-1.264-0.301-2.65-0.941-4.156-0.644-1.519-1.423-2.71-2.338-3.574-0.908-0.866-1.909-1.393-3.004-1.581-1.09-0.196-2.244-0.036-3.462 0.48zm28.698 5.121c-1.627 1.062-3.272 1.623-4.935 1.683-1.663 0.059-3.258-0.357-4.785-1.249-1.529-0.883-2.906-2.264-4.132-4.142-1.201-1.838-1.89-3.648-2.067-5.429-0.172-1.785 0.139-3.454 0.933-5.007 0.791-1.558 2.011-2.876 3.661-3.953 1.804-1.178 3.481-1.796 5.03-1.855 1.546-0.064 3.108 0.39 4.687 1.362l-1.798 2.933c-0.961-0.749-1.978-1.115-3.05-1.099-1.078 0.02-2.16 0.384-3.244 1.092-1.085 0.708-1.87 1.583-2.355 2.624-0.488 1.035-0.639 2.188-0.453 3.459 0.177 1.269 0.711 2.585 1.602 3.95 0.905 1.387 1.875 2.436 2.908 3.145 1.039 0.706 2.133 1.047 3.281 1.022 1.142-0.021 2.31-0.421 3.503-1.2 0.651-0.425 1.202-0.903 1.654-1.434 0.451-0.53 0.782-1.096 0.992-1.698 0.208-0.592 0.268-1.217 0.18-1.876-0.09-0.649-0.359-1.317-0.806-2.002l-0.325-0.497-5.044 3.293-1.493-2.286 7.545-4.926 5.831 8.933-2.106 1.375-2.436-3.394 0.696-0.075c0.297 1.378 0.16 2.689-0.412 3.933-0.568 1.25-1.589 2.356-3.062 3.318zm-1.784-24.79 6.182-5.742c1.623-1.509 3.291-2.304 5.002-2.385 1.715-0.077 3.213 0.574 4.494 1.953 1.327 1.428 1.871 2.975 1.631 4.641-0.24 1.665-1.172 3.252-2.795 4.76l-0.107 0.35-3.514 3.265 5.638 6.07-2.436 2.262zm8.992 4.796 3.567-3.313c0.994-0.923 1.546-1.812 1.654-2.667 0.099-0.855-0.243-1.705-1.028-2.549-0.765-0.824-1.58-1.221-2.445-1.19-0.87 0.035-1.802 0.515-2.796 1.438l-3.567 3.313zm4.264-1.225 1.216-2.929 12.017 3.019-2.832 2.631zm26.032-16.375-9.513 12.152-16.308-12.766 9.243-11.806 2.271 1.778-7.175 9.164 4.695 3.676 5.611-7.168 2.223 1.74-5.611 7.168 4.848 3.795 7.445-9.511zm-12.257-21.4c0.895-1.631 1.979-2.876 3.25-3.734 1.269-0.852 2.724-1.364 4.366-1.536l0.814 3.024c-1.445 0.11-2.639 0.473-3.584 1.09-0.951 0.614-1.753 1.516-2.406 2.705-0.485 0.885-0.764 1.677-0.837 2.376-0.072 0.699 0.017 1.288 0.267 1.768 0.247 0.485 0.619 0.864 1.115 1.136 0.568 0.312 1.172 0.386 1.813 0.225 0.635-0.165 1.369-0.723 2.201-1.674l2.847-3.233c1.356-1.55 2.63-2.476 3.823-2.779 1.189-0.296 2.387-0.113 3.595 0.55 1.118 0.613 1.923 1.448 2.417 2.504s0.667 2.244 0.519 3.562c-0.145 1.313-0.616 2.696-1.413 4.148-0.702 1.28-1.502 2.341-2.401 3.186-0.893 0.848-1.834 1.501-2.825 1.961s-1.99 0.736-2.998 0.829l-0.919-3.152c0.859-0.035 1.7-0.207 2.524-0.518 0.823-0.31 1.587-0.781 2.292-1.413 0.701-0.627 1.314-1.418 1.839-2.374 0.462-0.843 0.764-1.627 0.904-2.351 0.132-0.721 0.088-1.351-0.129-1.89-0.217-0.54-0.601-0.96-1.151-1.262-0.532-0.292-1.1-0.37-1.703-0.234-0.597 0.139-1.274 0.635-2.03 1.488l-3.089 3.484c-0.846 0.975-1.685 1.697-2.518 2.165-0.83 0.478-1.657 0.717-2.481 0.716-0.823-1e-3 -1.63-0.218-2.419-0.651-1.028-0.564-1.805-1.352-2.331-2.364-0.529-1.021-0.752-2.201-0.671-3.541 0.076-1.342 0.516-2.746 1.319-4.211zm7.206-16.521c0.63-1.752 1.507-3.15 2.629-4.195 1.121-1.039 2.478-1.771 4.074-2.197l1.274 2.861c-1.41 0.333-2.533 0.878-3.371 1.634-0.844 0.755-1.496 1.77-1.955 3.047-0.342 0.949-0.494 1.775-0.457 2.477 0.037 0.701 0.217 1.27 0.539 1.704 0.319 0.441 0.745 0.758 1.277 0.95 0.61 0.219 1.219 0.199 1.826-0.061 0.602-0.261 1.24-0.927 1.915-1.995l2.309-3.637c1.098-1.742 2.212-2.855 3.343-3.34 1.129-0.477 2.341-0.483 3.637-0.017 1.2 0.432 2.125 1.132 2.778 2.098 0.652 0.967 1.007 2.113 1.066 3.439 0.061 1.319-0.188 2.758-0.75 4.317-0.494 1.373-1.119 2.546-1.876 3.52-0.75 0.977-1.578 1.769-2.486 2.377-0.907 0.608-1.851 1.037-2.832 1.285l-1.398-2.971c0.843-0.167 1.647-0.469 2.412-0.903 0.766-0.435 1.447-1.019 2.045-1.754 0.595-0.727 1.077-1.604 1.447-2.631 0.325-0.904 0.501-1.725 0.527-2.462 0.018-0.733-0.123-1.349-0.421-1.848-0.299-0.499-0.744-0.854-1.334-1.067-0.571-0.205-1.144-0.194-1.718 0.034-0.569 0.23-1.16 0.825-1.774 1.786l-2.51 3.922c-0.683 1.095-1.4 1.938-2.15 2.531-0.745 0.601-1.525 0.965-2.339 1.092-0.814 0.128-1.644 0.039-2.491-0.266-1.103-0.397-1.994-1.055-2.671-1.972-0.681-0.926-1.085-2.058-1.213-3.394-0.134-1.338 0.082-2.793 0.648-4.364zm-240.34-38.516c0-1.331 1.079-2.409 2.409-2.409 1.331 0 2.41 1.078 2.41 2.409 0 1.33-1.079 2.409-2.41 2.409-1.33 0-2.409-1.079-2.409-2.409zm257.74 0c0-1.331 1.078-2.409 2.409-2.409 1.33 0 2.409 1.078 2.409 2.409 0 1.33-1.079 2.409-2.409 2.409-1.331 0-2.409-1.079-2.409-2.409z" fill="#ceb700" data-fill-palette-color="primary"/>
</svg>
</svg>
</svg>
</svg>
</svg>
<rect width="395.52" height="280" fill="none" visibility="hidden"/>
</g>
</svg>
</g>
</svg>
