<?xml version="1.0" standalone="no"?>
<!DOCTYPE svg PUBLIC "-//W3C//DTD SVG 20010904//EN"
 "http://www.w3.org/TR/2001/REC-SVG-20010904/DTD/svg10.dtd">
<svg version="1.0" xmlns="http://www.w3.org/2000/svg"
 width="995.000000pt" height="295.000000pt" viewBox="0 0 995.000000 295.000000"
 preserveAspectRatio="xMidYMid meet">

<g transform="translate(0.000000,295.000000) scale(0.100000,-0.100000)"
fill="#000000" stroke="none">
<path d="M30 1915 c0 -9 17 -20 45 -27 l45 -12 -2 -325 -3 -324 -43 -15 c-23
-7 -42 -20 -42 -28 0 -11 27 -14 145 -14 122 0 145 2 145 15 0 9 -17 20 -45
27 l-45 12 0 315 c0 173 2 312 4 310 2 -2 59 -150 126 -329 131 -348 134 -357
143 -343 3 5 60 155 127 333 124 331 146 383 136 321 -3 -18 -6 -163 -6 -321
l0 -288 -45 -11 c-28 -7 -45 -17 -45 -26 0 -13 23 -15 145 -15 122 0 145 2
145 15 0 9 -17 20 -45 27 l-45 12 2 325 3 324 43 15 c23 7 42 20 42 28 0 11
-25 14 -133 14 l-132 0 -99 -297 -99 -298 -99 298 -100 297 -134 0 c-113 0
-134 -2 -134 -15z"/>
<path d="M2037 1920 c-136 -35 -217 -134 -240 -296 -19 -139 19 -289 94 -363
19 -19 59 -46 89 -60 47 -22 69 -26 155 -26 84 0 108 4 153 24 53 24 100 68
126 120 14 26 14 30 -2 44 -16 15 -20 13 -52 -31 -47 -63 -105 -94 -189 -100
-89 -6 -143 10 -191 58 -53 53 -80 141 -80 260 0 207 84 320 236 320 102 -1
177 -49 210 -137 12 -29 23 -43 35 -43 17 0 19 8 19 62 0 34 -8 85 -17 115
l-17 53 -22 -21 -23 -21 -47 23 c-53 25 -172 35 -237 19z"/>
<path d="M5290 1915 c0 -9 17 -20 45 -27 l45 -12 0 -326 0 -326 -45 -12 c-28
-7 -45 -18 -45 -27 0 -13 23 -15 145 -15 122 0 145 2 145 15 0 9 -17 20 -45
27 l-45 12 0 148 0 148 93 0 c108 1 168 13 210 42 82 59 90 235 15 316 -40 41
-104 52 -320 52 -170 0 -198 -2 -198 -15z m419 -61 c65 -46 68 -204 4 -254
-22 -17 -40 -20 -124 -20 l-99 0 0 145 0 145 98 0 c74 0 103 -4 121 -16z"/>
<path d="M2652 1658 c-47 -10 -114 -68 -124 -106 -6 -20 -2 -22 32 -22 30 0
40 5 45 21 8 23 61 59 88 59 10 0 31 -7 47 -15 31 -16 50 -62 50 -123 l0 -32
-37 20 c-73 39 -179 14 -218 -52 -27 -45 -26 -128 1 -165 42 -56 69 -68 147
-66 118 4 129 3 190 -3 63 -6 75 7 37 41 -18 17 -20 31 -20 169 0 184 -12 221
-81 253 -56 26 -102 32 -157 21z m109 -267 c23 -24 29 -38 29 -74 0 -56 -23
-78 -89 -85 -46 -4 -53 -2 -81 26 -34 34 -39 75 -15 122 17 34 27 38 83 39 35
1 49 -5 73 -28z"/>
<path d="M3372 1659 c-24 -4 -68 -20 -99 -34 -65 -29 -63 -29 -63 -12 0 33
-35 47 -119 47 -93 0 -105 -14 -33 -38 l42 -14 -2 -191 -3 -190 -42 -15 c-24
-7 -43 -20 -43 -28 0 -11 27 -14 145 -14 122 0 145 2 145 15 0 9 -17 20 -45
27 l-45 12 0 161 0 162 53 26 c67 34 93 35 101 2 9 -37 49 -59 92 -52 49 8 74
33 74 73 0 54 -67 81 -158 63z"/>
<path d="M3813 1659 c-144 -27 -217 -150 -178 -301 9 -35 27 -80 40 -100 45
-67 153 -103 241 -79 47 13 144 85 144 107 0 29 -31 27 -63 -4 -39 -37 -75
-52 -128 -52 -83 0 -126 46 -136 146 l-6 54 167 0 166 0 0 34 c0 77 -40 145
-103 174 -54 25 -92 31 -144 21z m101 -64 c33 -16 66 -61 66 -89 0 -14 -17
-16 -126 -16 -125 0 -125 0 -119 23 12 40 36 68 68 82 42 19 72 18 111 0z"/>
<path d="M4343 1659 c-89 -17 -150 -69 -176 -149 -9 -29 -17 -62 -17 -74 0
-43 32 -142 57 -179 47 -68 151 -102 240 -78 48 13 143 84 143 107 0 29 -31
27 -63 -4 -55 -53 -137 -68 -198 -36 -37 19 -68 83 -69 142 l0 42 165 0 165 0
0 34 c0 131 -113 220 -247 195z m101 -64 c33 -16 66 -61 66 -89 0 -14 -17 -16
-126 -16 -125 0 -125 0 -119 23 12 40 36 68 68 82 42 19 72 18 111 0z"/>
<path d="M5042 1659 c-24 -4 -68 -20 -99 -34 -65 -29 -63 -29 -63 -12 0 33
-35 47 -119 47 -93 0 -105 -14 -33 -38 l42 -14 0 -192 0 -192 -45 -12 c-28 -7
-45 -18 -45 -27 0 -13 23 -15 145 -15 122 0 145 2 145 15 0 9 -17 20 -45 27
l-45 12 0 161 0 162 54 26 c69 34 92 34 100 2 9 -37 49 -59 92 -52 49 8 74 33
74 73 0 54 -67 81 -158 63z"/>
<path d="M6318 1659 c-26 -4 -73 -19 -104 -33 -66 -30 -64 -30 -64 -13 0 33
-35 47 -119 47 -93 0 -105 -14 -33 -38 l42 -14 -2 -191 -3 -190 -42 -15 c-24
-7 -43 -20 -43 -28 0 -11 27 -14 145 -14 122 0 145 2 145 15 0 9 -17 20 -45
27 l-45 12 0 161 0 162 54 26 c69 34 92 34 100 2 9 -37 49 -59 92 -52 49 8 74
33 74 73 0 54 -58 78 -152 63z"/>
<path d="M6759 1659 c-60 -9 -99 -30 -137 -74 -61 -69 -76 -185 -35 -286 59
-148 325 -173 422 -39 72 99 60 265 -25 344 -51 46 -140 69 -225 55z m127 -74
c38 -24 64 -90 64 -160 0 -81 -14 -125 -51 -161 -26 -25 -38 -29 -89 -29 -51
0 -63 4 -89 29 -82 79 -64 281 29 329 41 21 97 18 136 -8z"/>
<path d="M7362 1659 c-57 -11 -109 -44 -128 -82 -23 -44 -15 -137 16 -179 20
-27 21 -33 8 -42 -41 -30 -49 -90 -18 -129 l21 -26 -28 -15 c-44 -22 -71 -57
-83 -108 -16 -62 -1 -106 50 -152 57 -51 128 -69 254 -64 88 3 109 7 161 33
77 39 100 71 100 138 0 105 -76 158 -265 182 -62 9 -119 20 -127 26 -20 17
-16 57 7 69 15 8 28 7 52 -6 41 -21 136 -29 180 -15 19 6 50 27 69 47 32 34
34 39 34 109 0 54 4 78 17 91 22 25 38 68 38 105 0 38 -20 37 -42 -1 -9 -17
-29 -35 -43 -42 -22 -10 -28 -8 -48 10 -47 45 -146 67 -225 51z m138 -74 c80
-41 118 -168 65 -220 -30 -31 -99 -34 -153 -6 -47 24 -66 46 -82 94 -36 114
59 188 170 132z m51 -453 c85 -37 112 -104 64 -156 -38 -41 -90 -59 -175 -59
-116 0 -190 47 -190 123 0 38 23 83 52 105 32 23 185 15 249 -13z"/>
<path d="M7852 1662 c-63 -4 -65 -19 -4 -40 l42 -14 0 -192 0 -192 -45 -12
c-28 -7 -45 -18 -45 -27 0 -13 23 -15 145 -15 122 0 145 2 145 15 0 9 -17 20
-45 27 l-45 12 0 161 0 162 53 26 c67 34 93 35 101 2 14 -55 100 -72 147 -29
29 26 25 80 -7 100 -51 34 -136 21 -281 -43 -7 -3 -13 1 -13 9 0 38 -51 55
-148 50z"/>
<path d="M8603 1659 c-112 -21 -193 -117 -193 -230 0 -40 34 -143 60 -178 43
-62 153 -95 237 -72 48 13 143 84 143 107 0 29 -31 27 -63 -4 -39 -37 -75 -52
-128 -52 -83 0 -126 46 -136 146 l-6 54 167 0 166 0 0 34 c0 131 -113 220
-247 195z m102 -65 c30 -14 65 -64 65 -93 0 -7 -41 -11 -126 -11 -125 0 -125
0 -119 23 12 40 36 68 68 82 42 19 72 18 112 -1z"/>
<path d="M9060 1659 c-81 -16 -124 -65 -116 -132 6 -51 25 -70 99 -97 93 -34
153 -66 176 -96 27 -35 26 -49 -5 -81 -23 -23 -31 -25 -94 -21 -80 4 -123 29
-128 71 -3 21 -9 27 -28 27 -23 0 -24 -3 -24 -68 0 -72 14 -104 35 -76 10 14
16 14 64 -2 39 -12 72 -15 130 -11 128 8 178 48 168 133 -2 26 -14 58 -24 73
-26 35 -112 86 -188 111 -112 37 -138 77 -68 107 66 27 178 2 189 -44 4 -14
14 -23 25 -23 17 0 19 8 19 59 0 61 -15 88 -32 57 -8 -14 -12 -14 -36 -2 -38
19 -109 26 -162 15z"/>
<path d="M9550 1659 c-82 -16 -124 -65 -116 -133 6 -52 26 -68 121 -105 140
-54 189 -97 167 -147 -16 -33 -55 -47 -125 -42 -67 5 -110 32 -115 71 -3 21
-9 27 -28 27 -23 0 -24 -3 -24 -68 0 -72 14 -104 35 -76 10 14 16 14 64 -2 39
-12 72 -15 130 -11 127 8 178 48 169 131 -10 83 -65 131 -214 186 -41 16 -81
34 -89 40 -46 38 21 87 105 77 63 -8 99 -26 106 -54 4 -14 14 -23 25 -23 17 0
19 8 19 59 0 61 -15 88 -32 57 -8 -14 -12 -14 -36 -2 -38 19 -109 26 -162 15z"/>
<path d="M1042 1648 c3 -7 24 -19 49 -27 l44 -14 112 -223 113 -222 -31 -74
c-18 -41 -39 -85 -48 -97 -21 -28 -79 -38 -106 -18 -19 15 -19 16 -2 35 28 31
20 93 -15 110 -34 16 -75 1 -88 -33 -16 -42 4 -105 44 -142 32 -29 42 -33 93
-33 86 0 114 21 161 122 22 46 86 194 143 329 l104 247 44 14 c82 25 63 38
-55 38 l-108 0 27 -27 26 -28 -64 -150 c-36 -82 -69 -159 -73 -170 -8 -16 -24
10 -95 151 l-86 171 27 26 27 27 -124 0 c-92 0 -122 -3 -119 -12z"/>
</g>
</svg>
