<svg xmlns="http://www.w3.org/2000/svg" version="1.1" xmlns:xlink="http://www.w3.org/1999/xlink" xmlns:svgjs="http://svgjs.dev/svgjs" width="1000" height="1000" viewBox="0 0 1000 1000"><rect width="1000" height="1000" fill="#ffffff"></rect><g transform="matrix(0.7,0,0,0.7,149.57575757575756,252.54999999999998)"><svg viewBox="0 0 396 280" data-background-color="#ffffff" preserveAspectRatio="xMidYMid meet" height="707" width="1000" xmlns="http://www.w3.org/2000/svg" xmlns:xlink="http://www.w3.org/1999/xlink"><g id="tight-bounds" transform="matrix(1,0,0,1,0.2400000000000091,0)"><svg viewBox="0 0 395.52 280" height="280" width="395.52"><g><svg viewBox="0 0 395.52 280" height="280" width="395.52"><g><svg viewBox="0 0 395.52 280" height="280" width="395.52"><g><svg viewBox="0 0 395.52 280" height="280" width="395.52"><g><svg viewBox="0 0 395.52 280" height="280" width="395.52"><g transform="matrix(1,0,0,1,81.22880246045696,47.293586941235716)"><svg viewBox="0 0 233.06239507908606 185.41282611752857" height="185.41282611752857" width="233.06239507908606"><g><circle r="82" cx="116.53119753954303" cy="92.70641305876428" fill="#f7d65a" data-fill-palette-color="accent"></circle><svg xmlns="http://www.w3.org/2000/svg" xmlns:xlink="http://www.w3.org/1999/xlink" version="1.1" x="34.95935926186291" y="34.95935926186291" viewBox="15.19999885559082 6.699999809265137 70.203857421875 87.29999542236328" style="enable-background:new 0 0 100 100;" xml:space="preserve" height="115.49410759380275" width="163.14367655536023" class="icon-o-0" data-fill-palette-color="quaternary" id="o-0"><path d="M50.4 6.7c-10.8 0-19.6 8.8-19.6 19.6s8.8 19.6 19.6 19.6S70 37.1 70 26.3 61.2 6.7 50.4 6.7z" fill="#ffffff" data-fill-palette-color="quaternary"></path><path d="M68.5 53H32.3c-9.3 0-17.1 7.5-17.1 17v15.8h18.5c-0.7-1.9-1.2-4-1.2-6.1 0-9.5 8-17.3 17.8-17.3s17.8 7.7 17.8 17.3c0 2.2-0.4 4.2-1.2 6.1h18.5V70C85.6 60.5 78 53 68.5 53z" fill="#ffffff" data-fill-palette-color="quaternary"></path><rect x="48.4" y="74" width="4" height="1.3" fill="#ffffff" data-fill-palette-color="quaternary"></rect><path d="M50.4 65.6c-7.8 0-14.2 6.3-14.2 14.2 0 7.8 6.3 14.2 14.2 14.2s14.2-6.3 14.2-14.2S58.2 65.6 50.4 65.6zM58.6 85.8c0 0.5-0.4 0.9-0.9 0.9H43.1c-0.5 0-0.9-0.4-0.9-0.9v-9.6c0-0.5 0.4-0.9 0.9-0.9h4.1v-1.9c0-0.3 0.3-0.6 0.6-0.6H53c0.3 0 0.6 0.3 0.6 0.6v1.9h4.1c0.5 0 0.9 0.4 0.9 0.9V85.8z" fill="#ffffff" data-fill-palette-color="quaternary"></path></svg></g></svg></g><path d="M68.001 86.239L69.63 81.618 89.162 88.505 88.128 91.437 76.823 87.451 71.517 85.309 71.506 85.338 86.104 97.176 85.176 99.809 66.382 99.874 66.371 99.903 71.845 101.572 83.149 105.558 82.119 108.48 62.587 101.594 64.246 96.887 76.938 96.937 82.067 97.216 82.087 97.159 77.928 94.131ZM79.878 64.061L81.81 60.831 88.971 73.743 95.782 77.817 94.06 80.696 87.249 76.622 72.501 76.392 74.417 73.189 82.049 73.44 85.526 73.625 83.724 70.64ZM104.806 54.85L107.655 53.044C108.363 54.16 108.787 55.316 108.927 56.514 109.072 57.715 108.958 58.89 108.584 60.037 108.211 61.194 107.593 62.3 106.73 63.356V63.356C105.475 64.893 104.05 65.957 102.458 66.548 100.865 67.14 99.203 67.239 97.472 66.846 95.737 66.459 94.009 65.562 92.288 64.155V64.155C90.572 62.753 89.352 61.24 88.626 59.617 87.897 58 87.663 56.352 87.925 54.673 88.188 52.994 88.94 51.394 90.183 49.874V49.874C91.046 48.818 91.969 47.984 92.954 47.371 93.945 46.763 94.976 46.395 96.049 46.267 97.122 46.15 98.226 46.286 99.361 46.676V46.676L98.454 50.016C97.231 49.562 96.147 49.46 95.203 49.71 94.255 49.966 93.377 50.587 92.571 51.574V51.574C91.764 52.562 91.289 53.622 91.146 54.756 91.003 55.88 91.209 57.012 91.764 58.153 92.32 59.294 93.237 60.387 94.514 61.431V61.431C95.782 62.466 97.021 63.158 98.234 63.506 99.451 63.849 100.592 63.848 101.657 63.503 102.722 63.159 103.673 62.474 104.51 61.45V61.45C105.317 60.463 105.76 59.403 105.84 58.271 105.919 57.129 105.574 55.989 104.806 54.85ZM115.015 54.05L112.402 56.314 104.748 35.543 107.787 32.912 127.252 43.451 124.57 45.774 110.846 38.069 108.18 36.428 108.11 36.488 109.36 39.275ZM120.473 42.138L112 49.477 110.212 47.413 118.685 40.074ZM118.36 24.694L125.498 20.195C127.372 19.013 129.158 18.54 130.854 18.777 132.554 19.019 133.906 19.936 134.91 21.528V21.528C135.949 23.178 136.197 24.799 135.653 26.391 135.109 27.983 133.9 29.37 132.025 30.551V30.551L131.855 30.876 127.797 33.434 132.215 40.442 129.403 42.214ZM126.309 31.072L130.427 28.476C131.575 27.752 132.281 26.981 132.546 26.161 132.802 25.339 132.623 24.44 132.008 23.466V23.466C131.408 22.514 130.681 21.973 129.825 21.843 128.964 21.717 127.959 22.016 126.812 22.739V22.739L122.693 25.335ZM130.726 30.657L132.462 28.003 143.713 33.194 140.443 35.256ZM160.72 26.196L146.534 32.274 138.378 13.237 152.159 7.333 153.295 9.984 142.597 14.567 144.945 20.048 153.312 16.463 154.424 19.058 146.057 22.643 148.481 28.302 159.584 23.545ZM178.953 21.774L163.999 25.588 158.881 5.52 173.41 1.815 174.122 4.609 162.845 7.485 164.318 13.263 173.138 11.014 173.836 13.749 165.015 15.998 166.537 21.964 178.241 18.98ZM180.404 1.072L188.808 0.322C191.015 0.125 192.82 0.518 194.222 1.502 195.625 2.492 196.41 3.925 196.577 5.799V5.799C196.75 7.742 196.232 9.297 195.022 10.466 193.812 11.635 192.104 12.318 189.896 12.515V12.515L189.597 12.727 184.819 13.153 185.556 21.405 182.245 21.7ZM184.571 10.372L189.42 9.94C190.772 9.819 191.752 9.454 192.362 8.845 192.964 8.23 193.214 7.349 193.111 6.201V6.201C193.011 5.081 192.61 4.267 191.908 3.762 191.199 3.257 190.169 3.065 188.817 3.186V3.186L183.968 3.619ZM188.692 12.017L191.447 10.447 199.094 20.196 195.244 20.54ZM203.436 0L211.385 0.541C212.867 0.642 214.129 0.991 215.168 1.588 216.207 2.178 216.997 2.973 217.537 3.974 218.077 4.981 218.301 6.161 218.208 7.515V7.515C218.118 8.848 217.736 9.981 217.065 10.912 216.393 11.844 215.502 12.532 214.392 12.975 213.282 13.426 211.985 13.601 210.502 13.5V13.5L205.9 13.187 205.376 20.89 202.029 20.663ZM206.096 10.309L210.168 10.586C211.651 10.687 212.763 10.452 213.506 9.881 214.242 9.316 214.649 8.448 214.729 7.278V7.278C214.81 6.088 214.524 5.163 213.872 4.503 213.214 3.837 212.143 3.453 210.66 3.352V3.352L206.589 3.075ZM224.973 2.456L233.194 4.356C235.353 4.855 236.946 5.79 237.972 7.161 238.998 8.539 239.298 10.144 238.875 11.978V11.978C238.436 13.878 237.459 15.195 235.946 15.93 234.433 16.665 232.596 16.783 230.437 16.284V16.284L230.087 16.392 225.413 15.312 223.548 23.383 220.31 22.635ZM226.042 12.592L230.785 13.688C232.107 13.993 233.153 13.951 233.921 13.562 234.685 13.165 235.197 12.405 235.456 11.282V11.282C235.709 10.186 235.581 9.289 235.071 8.59 234.554 7.89 233.634 7.387 232.312 7.081V7.081L227.569 5.985ZM229.447 15.436L232.554 14.8 236.791 26.444 233.025 25.573ZM255.412 11.796V11.796C257.264 12.581 258.697 13.656 259.711 15.019 260.725 16.383 261.285 17.95 261.393 19.721 261.507 21.495 261.131 23.402 260.266 25.442V25.442C259.398 27.488 258.286 29.087 256.931 30.238 255.583 31.392 254.066 32.077 252.381 32.296 250.696 32.514 248.927 32.231 247.076 31.445V31.445C245.249 30.67 243.829 29.601 242.815 28.238 241.801 26.874 241.24 25.307 241.133 23.535 241.019 21.761 241.396 19.851 242.264 17.805V17.805C243.129 15.765 244.24 14.17 245.594 13.019 246.943 11.865 248.46 11.179 250.145 10.961 251.83 10.742 253.586 11.021 255.412 11.796ZM254.27 14.488V14.488C253.077 13.982 251.936 13.828 250.845 14.024 249.751 14.212 248.746 14.737 247.832 15.601 246.924 16.467 246.147 17.66 245.503 19.179V19.179C244.864 20.685 244.547 22.069 244.552 23.331 244.564 24.595 244.882 25.689 245.504 26.612 246.121 27.533 247.026 28.246 248.218 28.752V28.752C249.436 29.269 250.59 29.429 251.681 29.232 252.778 29.039 253.782 28.505 254.692 27.633 255.61 26.763 256.388 25.575 257.027 24.068V24.068C257.671 22.549 257.986 21.161 257.972 19.903 257.964 18.648 257.647 17.562 257.021 16.645 256.405 15.724 255.487 15.005 254.27 14.488ZM266.032 41.923V41.923C264.405 40.86 263.23 39.58 262.506 38.082 261.782 36.583 261.522 34.956 261.724 33.199 261.917 31.444 262.627 29.627 263.853 27.749V27.749C265.053 25.91 266.433 24.551 267.992 23.672 269.557 22.797 271.21 22.41 272.951 22.512 274.695 22.609 276.393 23.196 278.043 24.273V24.273C279.847 25.451 281.088 26.737 281.765 28.132 282.446 29.521 282.659 31.134 282.404 32.971V32.971L278.996 32.504C279.295 31.323 279.221 30.245 278.775 29.27 278.323 28.291 277.554 27.447 276.469 26.739V26.739C275.385 26.031 274.268 25.664 273.12 25.64 271.976 25.609 270.859 25.935 269.771 26.617 268.68 27.289 267.69 28.307 266.799 29.672V29.672C265.893 31.059 265.324 32.369 265.09 33.6 264.861 34.835 264.99 35.974 265.474 37.015 265.953 38.052 266.789 38.96 267.983 39.739V39.739C268.634 40.164 269.293 40.477 269.96 40.676 270.628 40.876 271.279 40.951 271.914 40.901 272.54 40.854 273.136 40.657 273.704 40.311 274.262 39.967 274.765 39.453 275.213 38.767V38.767L275.537 38.271 270.493 34.978 271.985 32.691 279.53 37.617 273.699 46.549 271.592 45.174 273.719 41.579 274.068 42.185C272.926 43.012 271.671 43.413 270.301 43.39 268.928 43.373 267.505 42.884 266.032 41.923ZM290.684 34.191L296.866 39.934C298.489 41.442 299.405 43.046 299.612 44.746 299.815 46.452 299.276 47.994 297.995 49.372V49.372C296.668 50.801 295.165 51.457 293.487 51.34 291.808 51.224 290.157 50.411 288.534 48.903V48.903L288.176 48.822 284.662 45.558 279.024 51.627 276.588 49.365ZM286.562 43.512L290.129 46.825C291.123 47.749 292.05 48.233 292.911 48.279 293.771 48.315 294.593 47.91 295.377 47.066V47.066C296.143 46.242 296.478 45.4 296.384 44.54 296.285 43.675 295.738 42.781 294.744 41.857V41.857L291.177 38.544ZM288.098 47.674L291.109 48.671 288.982 60.878 286.15 58.247ZM300.105 75.519L290.592 63.367 306.899 50.6 316.142 62.406 313.871 64.184 306.696 55.019 302.001 58.695 307.612 65.862 305.389 67.602 299.778 60.435 294.93 64.23 302.376 73.741ZM323.317 74.565V74.565C324.213 76.197 324.68 77.78 324.72 79.313 324.757 80.841 324.407 82.343 323.67 83.821V83.821L320.682 82.882C321.366 81.605 321.701 80.402 321.689 79.273 321.682 78.141 321.353 76.981 320.7 75.791V75.791C320.215 74.906 319.697 74.246 319.146 73.809 318.595 73.372 318.051 73.131 317.512 73.084 316.97 73.032 316.451 73.141 315.954 73.414V73.414C315.387 73.725 314.999 74.195 314.791 74.822 314.589 75.446 314.665 76.365 315.019 77.578V77.578L316.216 81.716C316.795 83.692 316.892 85.265 316.506 86.433 316.117 87.595 315.319 88.507 314.111 89.17V89.17C312.993 89.783 311.856 90.014 310.7 89.863 309.544 89.712 308.45 89.219 307.417 88.386 306.388 87.559 305.475 86.419 304.678 84.966V84.966C303.976 83.687 303.51 82.441 303.281 81.23 303.046 80.021 303 78.875 303.145 77.793 303.29 76.71 303.594 75.719 304.057 74.82V74.82L307.209 75.738C306.777 76.481 306.47 77.283 306.289 78.144 306.109 79.006 306.096 79.903 306.25 80.837 306.402 81.765 306.74 82.707 307.264 83.664V83.664C307.727 84.507 308.225 85.182 308.761 85.689 309.298 86.188 309.853 86.49 310.425 86.596 310.996 86.703 311.557 86.605 312.107 86.303V86.303C312.639 86.011 313.01 85.575 313.22 84.993 313.423 84.414 313.368 83.577 313.055 82.482V82.482L311.777 78.004C311.409 76.767 311.251 75.671 311.303 74.717 311.346 73.76 311.589 72.935 312.033 72.24 312.476 71.546 313.092 70.982 313.882 70.55V70.55C314.91 69.986 315.992 69.754 317.128 69.854 318.273 69.956 319.388 70.402 320.474 71.191 321.566 71.976 322.514 73.101 323.317 74.565ZM332.214 94.838V94.838C332.845 96.59 333.061 98.226 332.862 99.747 332.66 101.261 332.081 102.691 331.123 104.036V104.036L328.317 102.643C329.191 101.488 329.71 100.352 329.873 99.236 330.043 98.116 329.898 96.919 329.438 95.642V95.642C329.096 94.693 328.688 93.959 328.212 93.442 327.736 92.925 327.235 92.602 326.71 92.472 326.183 92.336 325.653 92.363 325.12 92.555V92.555C324.511 92.774 324.055 93.178 323.752 93.765 323.455 94.35 323.387 95.269 323.549 96.523V96.523L324.087 100.797C324.351 102.839 324.202 104.407 323.639 105.501 323.074 106.589 322.144 107.366 320.848 107.832V107.832C319.648 108.264 318.489 108.316 317.371 107.986 316.252 107.657 315.248 107 314.357 106.017 313.469 105.039 312.745 103.771 312.183 102.212V102.212C311.689 100.839 311.423 99.536 311.385 98.304 311.341 97.073 311.474 95.935 311.786 94.888 312.097 93.841 312.552 92.909 313.149 92.092V92.092L316.12 93.49C315.577 94.157 315.15 94.901 314.837 95.724 314.524 96.547 314.372 97.431 314.379 98.378 314.384 99.318 314.572 100.302 314.941 101.328V101.328C315.267 102.233 315.654 102.977 316.104 103.562 316.558 104.138 317.059 104.522 317.607 104.716 318.155 104.91 318.724 104.901 319.314 104.689V104.689C319.885 104.483 320.319 104.11 320.617 103.568 320.908 103.028 320.984 102.193 320.845 101.061V101.061L320.279 96.439C320.109 95.16 320.123 94.053 320.323 93.119 320.514 92.18 320.883 91.403 321.429 90.786 321.975 90.169 322.672 89.708 323.518 89.403V89.403C324.622 89.006 325.727 88.945 326.833 89.221 327.949 89.501 328.981 90.114 329.931 91.062 330.887 92.008 331.648 93.267 332.214 94.838ZM92.267 189.774L93.895 194.394 74.363 201.28 73.33 198.348 84.634 194.362 90.111 192.703 90.101 192.674 71.306 192.609 70.378 189.976 84.976 178.138 84.966 178.109 79.656 180.241 68.351 184.227 67.321 181.304 86.853 174.418 88.512 179.125 78.595 187.046 74.426 190.045 74.446 190.103 79.585 189.853ZM101.959 207.298L103.891 210.528 89.127 210.731 82.316 214.805 80.594 211.927 87.405 207.852 94.582 194.967 96.498 198.17 92.668 204.776 90.86 207.752 94.342 207.576ZM102.808 231.35L104.01 234.502C102.776 234.974 101.558 235.159 100.357 235.057 99.15 234.96 98.022 234.614 96.972 234.019 95.913 233.423 94.952 232.597 94.089 231.541V231.541C92.833 230.005 92.075 228.397 91.812 226.719 91.55 225.04 91.783 223.392 92.513 221.774 93.239 220.151 94.462 218.636 96.183 217.23V217.23C97.899 215.828 99.624 214.933 101.359 214.545 103.09 214.152 104.752 214.252 106.344 214.843 107.937 215.435 109.355 216.491 110.597 218.011V218.011C111.46 219.067 112.094 220.139 112.498 221.226 112.897 222.318 113.052 223.402 112.963 224.478 112.865 225.554 112.511 226.608 111.903 227.642V227.642L108.811 226.088C109.499 224.98 109.815 223.939 109.758 222.964 109.696 221.984 109.262 221 108.455 220.013V220.013C107.649 219.025 106.704 218.349 105.621 217.983 104.549 217.618 103.398 217.595 102.169 217.912 100.94 218.229 99.687 218.91 98.409 219.954V219.954C97.142 220.989 96.217 222.067 95.635 223.185 95.056 224.31 94.83 225.428 94.955 226.541 95.081 227.653 95.562 228.722 96.399 229.746V229.746C97.206 230.733 98.156 231.379 99.25 231.682 100.353 231.987 101.539 231.876 102.808 231.35ZM104.742 242.377L102.129 240.114 121.594 229.575 124.632 232.207 116.979 252.977 114.297 250.654 119.965 235.971 121.209 233.098 121.139 233.038 118.559 234.673ZM117.311 246.08L108.838 238.741 110.626 236.677 119.099 244.016ZM132.079 238.107L139.217 242.606C141.092 243.787 142.288 245.195 142.807 246.827 143.322 248.465 143.078 250.08 142.074 251.672V251.672C141.034 253.322 139.679 254.245 138.008 254.441 136.337 254.637 134.564 254.144 132.69 252.963V252.963L132.323 252.949 128.265 250.392 123.848 257.4 121.036 255.627ZM129.754 248.03L133.873 250.625C135.02 251.349 136.021 251.653 136.875 251.539 137.727 251.415 138.46 250.865 139.075 249.891V249.891C139.675 248.939 139.849 248.049 139.597 247.221 139.339 246.39 138.636 245.612 137.488 244.889V244.889L133.37 242.293ZM132.034 251.836L135.177 252.258 135.347 264.647 132.076 262.586ZM154.54 272.794L140.354 266.716 148.511 247.68 162.292 253.584 161.156 256.235 150.458 251.652 148.11 257.133 156.477 260.717 155.365 263.312 146.998 259.727 144.574 265.386 155.676 270.143ZM175.076 277.998L160.122 274.184 165.239 254.116 179.768 257.821 179.055 260.615 167.777 257.739 166.304 263.517 175.124 265.766 174.426 268.502 165.606 266.252 164.085 272.218 175.789 275.203ZM182.692 257.868L191.096 258.618C193.303 258.815 195.009 259.522 196.215 260.738 197.42 261.962 197.939 263.51 197.772 265.385V265.385C197.598 267.327 196.813 268.766 195.415 269.703 194.017 270.639 192.214 271.008 190.007 270.811V270.811L189.675 270.967 184.897 270.54 184.161 278.792 180.85 278.496ZM185.146 267.759L189.995 268.192C191.346 268.313 192.376 268.127 193.084 267.636 193.785 267.137 194.187 266.314 194.29 265.166V265.166C194.39 264.046 194.139 263.175 193.537 262.553 192.929 261.93 191.949 261.559 190.597 261.438V261.438L185.749 261.005ZM188.91 270.108L191.9 269.05 197.699 280 193.849 279.656ZM201.688 258.897L209.637 258.356C211.12 258.255 212.416 258.43 213.527 258.88 214.637 259.324 215.527 260.005 216.198 260.923 216.869 261.848 217.251 262.987 217.343 264.341V264.341C217.434 265.674 217.21 266.848 216.67 267.862 216.131 268.875 215.342 269.678 214.302 270.268 213.263 270.865 212.002 271.214 210.519 271.315V271.315L205.917 271.628 206.442 279.332 203.095 279.56ZM205.721 268.75L209.793 268.473C211.276 268.372 212.346 267.988 213.005 267.322 213.657 266.662 213.943 265.748 213.864 264.577V264.577C213.783 263.387 213.374 262.509 212.639 261.944 211.896 261.373 210.783 261.138 209.3 261.239V261.239L205.229 261.516ZM219.179 257.042L227.4 255.142C229.559 254.643 231.401 254.784 232.925 255.566 234.451 256.354 235.426 257.665 235.849 259.498V259.498C236.288 261.398 235.989 263.01 234.952 264.335 233.914 265.659 232.316 266.571 230.157 267.07V267.07L229.889 267.321 225.216 268.401 227.081 276.472 223.843 277.22ZM224.587 265.68L229.33 264.584C230.652 264.279 231.573 263.782 232.093 263.095 232.605 262.403 232.731 261.496 232.472 260.373V260.373C232.219 259.277 231.709 258.527 230.944 258.123 230.173 257.72 229.126 257.672 227.804 257.977V257.977L223.06 259.074ZM228.895 266.742L231.408 264.807 240.324 273.412 236.558 274.282ZM245.115 248.502V248.502C246.967 247.716 248.735 247.433 250.42 247.651 252.105 247.869 253.622 248.555 254.971 249.709 256.326 250.86 257.436 252.455 258.301 254.495V254.495C259.169 256.541 259.546 258.451 259.433 260.225 259.325 261.997 258.764 263.564 257.75 264.928 256.736 266.291 255.303 267.365 253.452 268.151V268.151C251.625 268.926 249.869 269.204 248.184 268.986 246.499 268.767 244.983 268.082 243.634 266.928 242.279 265.777 241.168 264.178 240.3 262.132V262.132C239.434 260.092 239.058 258.185 239.172 256.411 239.28 254.64 239.841 253.073 240.855 251.709 241.869 250.346 243.289 249.277 245.115 248.502ZM246.258 251.194V251.194C245.065 251.7 244.161 252.414 243.544 253.335 242.918 254.252 242.598 255.339 242.584 256.597 242.576 257.852 242.894 259.239 243.538 260.758V260.758C244.177 262.265 244.952 263.454 245.863 264.327 246.781 265.197 247.788 265.729 248.885 265.922 249.975 266.119 251.117 265.964 252.309 265.458V265.458C253.527 264.942 254.444 264.223 255.061 263.302 255.684 262.379 255.998 261.286 256.003 260.025 256.015 258.761 255.702 257.375 255.062 255.869V255.869C254.418 254.35 253.639 253.159 252.724 252.295 251.816 251.429 250.815 250.902 249.72 250.714 248.63 250.518 247.476 250.678 246.258 251.194ZM274.956 256.315V256.315C273.329 257.377 271.684 257.938 270.021 257.998 268.358 258.057 266.763 257.641 265.236 256.749 263.707 255.866 262.33 254.485 261.104 252.607V252.607C259.903 250.769 259.214 248.959 259.037 247.178 258.865 245.393 259.176 243.724 259.97 242.171 260.761 240.613 261.981 239.295 263.631 238.218V238.218C265.435 237.04 267.112 236.422 268.661 236.363 270.207 236.299 271.769 236.753 273.348 237.725V237.725L271.55 240.658C270.589 239.909 269.572 239.543 268.5 239.559 267.422 239.579 266.34 239.943 265.256 240.651V240.651C264.171 241.359 263.386 242.234 262.901 243.275 262.413 244.31 262.262 245.463 262.448 246.734 262.625 248.003 263.159 249.319 264.05 250.684V250.684C264.955 252.071 265.925 253.12 266.958 253.829 267.997 254.535 269.091 254.876 270.239 254.851 271.381 254.83 272.549 254.43 273.742 253.651V253.651C274.393 253.226 274.944 252.748 275.396 252.217 275.847 251.687 276.178 251.121 276.388 250.519 276.596 249.927 276.656 249.302 276.568 248.643 276.478 247.994 276.209 247.326 275.762 246.641V246.641L275.437 246.144 270.393 249.437 268.9 247.151 276.445 242.225 282.276 251.158 280.17 252.533 277.734 249.139 278.43 249.064C278.727 250.442 278.59 251.753 278.018 252.997 277.45 254.247 276.429 255.353 274.956 256.315ZM273.172 231.525L279.354 225.783C280.977 224.274 282.645 223.479 284.356 223.398 286.071 223.321 287.569 223.972 288.85 225.351V225.351C290.177 226.779 290.721 228.326 290.481 229.992 290.241 231.657 289.309 233.244 287.686 234.752V234.752L287.579 235.102 284.065 238.367 289.703 244.437 287.267 246.699ZM282.164 236.321L285.731 233.008C286.725 232.085 287.277 231.196 287.385 230.341 287.484 229.486 287.142 228.636 286.357 227.792V227.792C285.592 226.968 284.777 226.571 283.912 226.602 283.042 226.637 282.11 227.117 281.116 228.04V228.04L277.549 231.353ZM286.428 235.096L287.644 232.167 299.661 235.186 296.829 237.817ZM312.46 218.721L302.947 230.873 286.639 218.107 295.882 206.301 298.153 208.079 290.978 217.243 295.673 220.919 301.284 213.751 303.507 215.491 297.896 222.659 302.744 226.454 310.189 216.943ZM300.203 197.321V197.321C301.098 195.69 302.182 194.445 303.453 193.587 304.722 192.735 306.177 192.223 307.819 192.051V192.051L308.633 195.075C307.188 195.185 305.994 195.548 305.049 196.165 304.098 196.779 303.296 197.681 302.643 198.87V198.87C302.158 199.755 301.879 200.547 301.806 201.246 301.734 201.945 301.823 202.534 302.073 203.014 302.32 203.499 302.692 203.878 303.188 204.15V204.15C303.756 204.462 304.36 204.536 305.001 204.375 305.636 204.21 306.37 203.652 307.202 202.701V202.701L310.049 199.468C311.405 197.918 312.679 196.992 313.872 196.689 315.061 196.393 316.259 196.576 317.467 197.239V197.239C318.585 197.852 319.39 198.687 319.884 199.743 320.378 200.799 320.551 201.987 320.403 203.305 320.258 204.618 319.787 206.001 318.99 207.453V207.453C318.288 208.733 317.488 209.794 316.589 210.639 315.696 211.487 314.755 212.14 313.764 212.6 312.773 213.06 311.774 213.336 310.766 213.429V213.429L309.847 210.277C310.706 210.242 311.547 210.07 312.371 209.759 313.194 209.449 313.958 208.978 314.663 208.346 315.364 207.719 315.977 206.928 316.502 205.972V205.972C316.964 205.129 317.266 204.345 317.406 203.621 317.538 202.9 317.494 202.27 317.277 201.731 317.06 201.191 316.676 200.771 316.126 200.469V200.469C315.594 200.177 315.026 200.099 314.423 200.235 313.826 200.374 313.149 200.87 312.393 201.723V201.723L309.304 205.207C308.458 206.182 307.619 206.904 306.786 207.372 305.956 207.85 305.129 208.089 304.305 208.088 303.482 208.087 302.675 207.87 301.886 207.437V207.437C300.858 206.873 300.081 206.085 299.555 205.073 299.026 204.052 298.803 202.872 298.884 201.532 298.96 200.19 299.4 198.786 300.203 197.321ZM307.409 180.8V180.8C308.039 179.048 308.916 177.65 310.038 176.605 311.159 175.566 312.516 174.834 314.112 174.408V174.408L315.386 177.269C313.976 177.602 312.853 178.147 312.015 178.903 311.171 179.658 310.519 180.673 310.06 181.95V181.95C309.718 182.899 309.566 183.725 309.603 184.427 309.64 185.128 309.82 185.697 310.142 186.131 310.461 186.572 310.887 186.889 311.419 187.081V187.081C312.029 187.3 312.638 187.28 313.245 187.02 313.847 186.759 314.485 186.093 315.16 185.025V185.025L317.469 181.388C318.567 179.646 319.681 178.533 320.812 178.048 321.941 177.571 323.153 177.565 324.449 178.031V178.031C325.649 178.463 326.574 179.163 327.227 180.129 327.879 181.096 328.234 182.242 328.293 183.568 328.354 184.887 328.105 186.326 327.543 187.885V187.885C327.049 189.258 326.424 190.431 325.667 191.405 324.917 192.382 324.089 193.174 323.181 193.782 322.274 194.39 321.33 194.819 320.349 195.067V195.067L318.951 192.096C319.794 191.929 320.598 191.627 321.363 191.193 322.129 190.758 322.81 190.174 323.408 189.439 324.003 188.712 324.485 187.835 324.855 186.808V186.808C325.18 185.904 325.356 185.083 325.382 184.346 325.4 183.613 325.259 182.997 324.961 182.498 324.662 181.999 324.217 181.644 323.627 181.431V181.431C323.056 181.226 322.483 181.237 321.909 181.465 321.34 181.695 320.749 182.29 320.135 183.251V183.251L317.625 187.173C316.942 188.268 316.225 189.111 315.475 189.704 314.73 190.305 313.95 190.669 313.136 190.796 312.322 190.924 311.492 190.835 310.645 190.53V190.53C309.542 190.133 308.651 189.475 307.974 188.558 307.293 187.632 306.889 186.5 306.761 185.164 306.627 183.826 306.843 182.371 307.409 180.8ZM67.071 142.284C67.071 140.953 68.15 139.875 69.48 139.875 70.811 139.875 71.89 140.953 71.89 142.284 71.89 143.614 70.811 144.693 69.48 144.693 68.15 144.693 67.071 143.614 67.071 142.284ZM324.806 142.284C324.806 140.953 325.884 139.875 327.215 139.875 328.545 139.875 329.624 140.953 329.624 142.284 329.624 143.614 328.545 144.693 327.215 144.693 325.884 144.693 324.806 143.614 324.806 142.284Z" fill="#ceb700" data-fill-palette-color="primary"></path></svg></g></svg></g></svg></g><g></g></svg></g><defs></defs></svg><rect width="395.52" height="280" fill="none" stroke="none" visibility="hidden"></rect></g></svg></g></svg>