<?xml version="1.0" encoding="UTF-8"?>
<svg xmlns="http://www.w3.org/2000/svg" xmlns:xlink="http://www.w3.org/1999/xlink" width="205px" height="63px" viewBox="0 0 205 63" version="1.1">
<g id="surface1">
<path style=" stroke:none;fill-rule:nonzero;fill:rgb(43.921569%,83.921569%,97.647059%);fill-opacity:1;" d="M 187.875 31.851562 L 152.328125 33.933594 C 150.65625 34.035156 150.078125 34.679688 151.347656 35.027344 L 160.097656 37.425781 C 160.964844 37.664062 161.019531 38.074219 160.21875 38.332031 L 119.394531 51.511719 C 118.78125 51.710938 117.929688 51.820312 117.042969 51.820312 L 60.75 51.820312 C 58.640625 51.820312 56.585938 52.027344 54.878906 52.410156 L 17.308594 60.847656 C 16.164062 61.105469 15.730469 61.59375 16.445312 61.96875 C 17.214844 62.375 18.902344 62.503906 20.191406 62.265625 L 58.988281 55.113281 C 59.664062 54.988281 60.445312 54.925781 61.230469 54.941406 L 119.320312 55.855469 C 123.308594 55.917969 127.203125 55.46875 130.074219 54.613281 L 173.136719 41.789062 C 173.910156 41.558594 175.128906 41.550781 175.933594 41.769531 L 184.183594 44.03125 C 185.453125 44.382812 187.472656 44.128906 187.597656 43.609375 L 190.304688 32.519531 C 190.410156 32.105469 189.203125 31.777344 187.875 31.851562 Z M 187.875 31.851562 "/>
<path style=" stroke:none;fill-rule:nonzero;fill:rgb(97.647059%,81.568627%,70.588235%);fill-opacity:1;" d="M 124.515625 27.8125 L 118.71875 26.964844 C 118.695312 27.058594 118.5625 27.152344 118.3125 27.222656 L 106.570312 30.59375 C 106.417969 30.640625 106.25 30.675781 106.074219 30.707031 C 107.042969 30.820312 107.9375 30.921875 108.636719 30.996094 C 109.292969 31.070312 109.453125 31.328125 108.929688 31.46875 L 89.636719 36.660156 C 90.089844 36.777344 90.296875 36.976562 90.027344 37.164062 C 89.84375 37.292969 89.585938 37.453125 89.375 37.632812 C 88.699219 38.214844 89.671875 38.867188 91.546875 39.085938 L 96.714844 39.6875 L 125.296875 32.441406 C 130.949219 30.976562 129.714844 28.554688 124.515625 27.8125 Z M 124.515625 27.8125 "/>
<path style=" stroke:none;fill-rule:nonzero;fill:rgb(96.078431%,78.431373%,29.803922%);fill-opacity:1;" d="M 117.96875 26.574219 L 105.894531 24.777344 C 105.070312 25.054688 103.917969 25.222656 102.671875 25.242188 C 97.378906 25.328125 89.96875 24.53125 86.539062 24.023438 C 85.640625 23.890625 85.074219 23.644531 84.894531 23.371094 L 82.242188 24.398438 C 78.351562 25.894531 81.304688 28.226562 87.234375 28.820312 L 103.429688 30.792969 C 104.515625 30.914062 105.726562 30.835938 106.570312 30.59375 L 118.3125 27.222656 C 118.984375 27.03125 118.804688 26.691406 117.96875 26.574219 Z M 117.96875 26.574219 "/>
<path style=" stroke:none;fill-rule:nonzero;fill:rgb(96.078431%,78.431373%,29.803922%);fill-opacity:1;" d="M 87.234375 28.820312 C 82.804688 28.375 80.035156 26.960938 80.542969 25.648438 L 70.886719 29.894531 C 70.222656 30.183594 70.480469 30.585938 71.453125 30.78125 L 82.960938 33.058594 C 83.816406 33.230469 84.945312 33.179688 85.609375 32.941406 L 94.691406 29.726562 Z M 87.234375 28.820312 "/>
<path style=" stroke:none;fill-rule:nonzero;fill:rgb(97.647059%,81.568627%,70.588235%);fill-opacity:1;" d="M 82.960938 33.058594 L 71.453125 30.78125 C 71.242188 30.738281 71.070312 30.683594 70.929688 30.625 L 70.292969 30.910156 C 69.367188 31.316406 68.277344 31.6875 67.046875 32.011719 L 47.28125 37.1875 C 48.035156 37.269531 48.457031 37.542969 48.054688 37.785156 C 47.847656 37.910156 47.5625 38.066406 47.316406 38.242188 C 46.535156 38.8125 47.386719 39.480469 49.214844 39.730469 L 54.265625 40.421875 L 76.117188 35.308594 C 78.109375 34.84375 79.925781 34.3125 81.542969 33.726562 C 82.070312 33.535156 82.652344 33.320312 83.25 33.105469 C 83.152344 33.089844 83.054688 33.078125 82.960938 33.058594 Z M 82.960938 33.058594 "/>
<path style=" stroke:none;fill-rule:nonzero;fill:rgb(85.490196%,90.196078%,94.509804%);fill-opacity:1;" d="M 51.296875 36.136719 L 47.285156 37.1875 C 48.035156 37.273438 48.457031 37.542969 48.054688 37.785156 C 47.847656 37.910156 47.5625 38.066406 47.316406 38.242188 C 46.535156 38.8125 47.386719 39.480469 49.214844 39.730469 L 54.265625 40.421875 L 59.984375 39.085938 C 57.335938 38.171875 53.59375 36.886719 51.296875 36.136719 Z M 51.296875 36.136719 "/>
<path style=" stroke:none;fill-rule:nonzero;fill:rgb(85.490196%,90.196078%,94.509804%);fill-opacity:1;" d="M 93.78125 35.546875 L 89.636719 36.660156 C 90.089844 36.777344 90.296875 36.976562 90.027344 37.164062 C 89.84375 37.292969 89.585938 37.453125 89.375 37.632812 C 88.699219 38.214844 89.671875 38.867188 91.546875 39.085938 L 96.714844 39.6875 L 102.011719 38.347656 C 99.246094 37.402344 96.46875 36.457031 93.78125 35.546875 Z M 93.78125 35.546875 "/>
<path style=" stroke:none;fill-rule:nonzero;fill:rgb(97.647059%,81.568627%,70.588235%);fill-opacity:1;" d="M 129.53125 3.722656 C 122.824219 3.1875 115.972656 4.421875 114.226562 6.484375 C 112.484375 8.546875 116.507812 10.652344 123.210938 11.1875 C 129.917969 11.722656 136.769531 10.488281 138.515625 8.425781 C 140.261719 6.363281 136.238281 4.257812 129.53125 3.722656 Z M 129.53125 3.722656 "/>
<path style=" stroke:none;fill-rule:nonzero;fill:rgb(0%,0%,0%);fill-opacity:1;" d="M 139.871094 5.789062 C 138.421875 4.679688 135.65625 3.8125 132.078125 3.34375 C 128.503906 2.875 124.550781 2.863281 120.945312 3.308594 C 117.339844 3.753906 114.511719 4.601562 112.988281 5.699219 C 111.460938 6.800781 111.421875 8.015625 112.867188 9.125 C 114.320312 10.230469 117.085938 11.101562 120.660156 11.570312 C 122.496094 11.808594 124.429688 11.929688 126.367188 11.929688 C 128.203125 11.929688 130.039062 11.824219 131.792969 11.605469 C 139.238281 10.683594 142.863281 8.078125 139.871094 5.789062 Z M 130.304688 10.464844 C 127.6875 10.785156 124.820312 10.777344 122.230469 10.4375 C 119.640625 10.097656 117.636719 9.46875 116.585938 8.664062 C 115.535156 7.859375 115.566406 6.980469 116.671875 6.183594 C 117.773438 5.386719 119.824219 4.773438 122.4375 4.449219 C 123.710938 4.292969 125.039062 4.214844 126.371094 4.214844 C 127.773438 4.214844 129.179688 4.300781 130.507812 4.476562 C 133.101562 4.816406 135.105469 5.445312 136.15625 6.246094 C 138.324219 7.90625 135.699219 9.796875 130.304688 10.464844 Z M 130.304688 10.464844 "/>
<path style=" stroke:none;fill-rule:nonzero;fill:rgb(96.078431%,78.431373%,29.803922%);fill-opacity:1;" d="M 116.238281 12.089844 L 95.25 10.015625 C 94.039062 9.894531 92.75 10.113281 92.429688 10.492188 L 88.964844 14.582031 C 88.671875 14.925781 89.300781 15.28125 90.398438 15.394531 L 97.535156 16.136719 C 98.179688 16.203125 98.472656 16.429688 98.148438 16.613281 L 85.1875 22.757812 C 84.367188 23.226562 84.976562 23.789062 86.535156 24.023438 C 89.96875 24.53125 97.375 25.328125 102.667969 25.242188 C 104.308594 25.214844 105.792969 24.933594 106.570312 24.488281 L 121.394531 15.765625 C 123.855469 14.433594 121.058594 12.554688 116.238281 12.089844 Z M 116.238281 12.089844 "/>
<path style=" stroke:none;fill-rule:nonzero;fill:rgb(98.823529%,63.529412%,39.607843%);fill-opacity:1;" d="M 131.242188 18.6875 L 122.265625 14.433594 C 122.410156 14.890625 122.15625 15.351562 121.398438 15.765625 L 112.503906 20.996094 L 115.8125 22.609375 C 116.605469 22.996094 118.34375 23.074219 119.453125 22.769531 L 130.828125 19.640625 C 131.710938 19.398438 131.886719 18.992188 131.242188 18.6875 Z M 131.242188 18.6875 "/>
<path style=" stroke:none;fill-rule:nonzero;fill:rgb(97.647059%,81.568627%,70.588235%);fill-opacity:1;" d="M 156.214844 20.359375 L 130.757812 20.21875 L 130.027344 19.859375 L 119.539062 22.742188 L 121.015625 23.464844 C 122.257812 24.070312 124.417969 24.445312 126.757812 24.457031 L 155.960938 24.625 C 156.195312 24.625 156.425781 24.621094 156.65625 24.617188 C 160.164062 24.53125 162.957031 23.636719 163.023438 22.53125 C 163.09375 21.355469 160.046875 20.382812 156.214844 20.359375 Z M 156.214844 20.359375 "/>
<path style=" stroke:none;fill-rule:nonzero;fill:rgb(97.647059%,81.568627%,70.588235%);fill-opacity:1;" d="M 88.046875 10.160156 C 85.789062 9.9375 83.316406 10.078125 81.476562 10.539062 L 58.679688 16.265625 C 55.691406 17.015625 55.246094 18.371094 57.691406 19.289062 C 59.203125 19.855469 61.460938 20.125 63.675781 20.070312 C 65.039062 20.035156 66.386719 19.878906 67.527344 19.59375 L 87.375 14.609375 L 88.90625 14.761719 C 88.902344 14.703125 88.914062 14.640625 88.964844 14.578125 L 92.347656 10.585938 Z M 88.046875 10.160156 "/>
<path style=" stroke:none;fill-rule:nonzero;fill:rgb(98.823529%,63.529412%,39.607843%);fill-opacity:1;" d="M 95.25 10.015625 C 94.039062 9.894531 92.75 10.113281 92.429688 10.492188 L 88.96875 14.582031 C 88.675781 14.925781 89.300781 15.28125 90.398438 15.394531 L 97.539062 16.136719 C 97.984375 16.179688 98.257812 16.308594 98.273438 16.441406 L 102.136719 15.839844 C 106.851562 15.105469 110.609375 13.898438 112.796875 12.421875 L 113.660156 11.835938 Z M 95.25 10.015625 "/>
<path style=" stroke:none;fill-rule:nonzero;fill:rgb(0%,0%,0%);fill-opacity:1;" d="M 123.554688 13.480469 C 122.335938 12.53125 119.828125 11.792969 116.84375 11.503906 L 95.863281 9.429688 C 94.765625 9.320312 93.554688 9.355469 92.542969 9.527344 C 91.53125 9.695312 90.785156 9.992188 90.492188 10.335938 L 87.03125 14.425781 C 86.476562 15.078125 87.675781 15.761719 89.761719 15.976562 L 95.789062 16.601562 L 83.511719 22.421875 C 83.480469 22.4375 83.453125 22.449219 83.429688 22.464844 C 82.773438 22.835938 82.640625 23.261719 83.0625 23.660156 C 83.484375 24.0625 84.40625 24.386719 85.664062 24.574219 C 89.261719 25.109375 96.351562 25.863281 101.871094 25.863281 C 102.179688 25.863281 102.480469 25.863281 102.773438 25.855469 C 105.109375 25.820312 107.242188 25.40625 108.34375 24.773438 L 123.136719 16.066406 C 124.539062 15.3125 124.6875 14.367188 123.554688 13.480469 Z M 119.621094 15.476562 L 104.804688 24.195312 C 104.363281 24.453125 103.523438 24.613281 102.5625 24.628906 C 97.734375 24.703125 90.703125 23.957031 87.414062 23.46875 C 87.148438 23.429688 86.953125 23.363281 86.871094 23.285156 C 86.820312 23.230469 86.785156 23.15625 86.921875 23.066406 L 99.832031 16.949219 C 99.859375 16.933594 99.886719 16.917969 99.914062 16.90625 C 100.347656 16.65625 100.40625 16.367188 100.070312 16.105469 C 99.734375 15.84375 99.042969 15.640625 98.179688 15.550781 L 91.042969 14.8125 C 90.9375 14.800781 90.878906 14.769531 90.90625 14.734375 L 94.367188 10.644531 C 94.382812 10.628906 94.417969 10.613281 94.472656 10.605469 C 94.523438 10.597656 94.578125 10.59375 94.636719 10.601562 L 115.625 12.675781 C 115.632812 12.675781 115.636719 12.679688 115.640625 12.679688 C 117.484375 12.855469 119.046875 13.324219 119.828125 13.933594 C 120.515625 14.472656 120.453125 15.027344 119.621094 15.476562 Z M 119.621094 15.476562 "/>
<path style=" stroke:none;fill-rule:nonzero;fill:rgb(0%,0%,0%);fill-opacity:1;" d="M 132.921875 18.351562 L 124.085938 14.167969 C 123.488281 13.882812 122.25 13.800781 121.320312 13.984375 C 120.390625 14.171875 120.128906 14.550781 120.726562 14.835938 L 129.5625 19.023438 C 129.671875 19.074219 129.640625 19.140625 129.492188 19.183594 L 118.121094 22.308594 C 118.003906 22.339844 117.882812 22.34375 117.796875 22.339844 C 117.710938 22.335938 117.589844 22.324219 117.507812 22.28125 L 114.421875 20.777344 C 113.832031 20.488281 112.597656 20.402344 111.660156 20.582031 C 110.726562 20.765625 110.445312 21.144531 111.03125 21.433594 L 114.117188 22.9375 C 114.8125 23.277344 115.949219 23.503906 117.238281 23.558594 C 117.445312 23.566406 117.648438 23.570312 117.855469 23.570312 C 118.929688 23.570312 119.976562 23.449219 120.789062 23.226562 L 132.160156 20.101562 C 133.789062 19.652344 134.109375 18.917969 132.921875 18.351562 Z M 132.921875 18.351562 "/>
<path style=" stroke:none;fill-rule:nonzero;fill:rgb(0%,0%,0%);fill-opacity:1;" d="M 162.523438 20.585938 C 160.867188 20.058594 158.636719 19.757812 156.25 19.746094 L 131.875 19.609375 L 131.851562 19.597656 C 131.261719 19.308594 130.027344 19.222656 129.089844 19.402344 C 128.15625 19.585938 127.875 19.964844 128.460938 20.25 L 129.0625 20.542969 C 129.421875 20.71875 130.046875 20.828125 130.71875 20.832031 L 156.175781 20.976562 C 157.496094 20.984375 158.726562 21.148438 159.640625 21.441406 C 160.554688 21.730469 161.046875 22.113281 161.023438 22.519531 C 160.976562 23.304688 159.027344 23.941406 156.492188 24.003906 C 156.328125 24.007812 156.167969 24.011719 155.996094 24.007812 L 126.792969 23.84375 C 125.125 23.835938 123.597656 23.570312 122.707031 23.136719 L 121.359375 22.476562 C 120.769531 22.191406 119.53125 22.101562 118.597656 22.285156 C 117.664062 22.464844 117.382812 22.84375 117.96875 23.132812 L 119.320312 23.792969 C 120.929688 24.578125 123.695312 25.058594 126.71875 25.074219 L 155.917969 25.238281 C 155.980469 25.238281 156.039062 25.238281 156.101562 25.238281 C 156.34375 25.238281 156.582031 25.238281 156.816406 25.230469 C 161.410156 25.117188 164.941406 23.960938 165.023438 22.542969 C 165.070312 21.808594 164.179688 21.113281 162.523438 20.585938 Z M 162.523438 20.585938 "/>
<path style=" stroke:none;fill-rule:nonzero;fill:rgb(0%,0%,0%);fill-opacity:1;" d="M 92.566406 9.960938 L 88.664062 9.574219 C 85.742188 9.285156 82.585938 9.46875 80.210938 10.0625 L 57.414062 15.789062 C 53.574219 16.753906 53.003906 18.496094 56.140625 19.675781 C 57.855469 20.324219 60.421875 20.691406 63.109375 20.691406 C 63.351562 20.691406 63.59375 20.691406 63.835938 20.683594 C 65.660156 20.636719 67.375 20.425781 68.796875 20.070312 L 87.796875 15.296875 L 87.984375 15.316406 C 89.039062 15.421875 90.167969 15.242188 90.507812 14.921875 C 90.847656 14.597656 90.269531 14.25 89.21875 14.144531 L 87.992188 14.023438 C 87.34375 13.960938 86.632812 14 86.109375 14.132812 L 66.261719 19.117188 C 65.476562 19.3125 64.523438 19.429688 63.515625 19.457031 C 61.875 19.496094 60.277344 19.289062 59.242188 18.898438 C 57.5 18.246094 57.816406 17.277344 59.945312 16.742188 L 82.742188 11.015625 C 84.0625 10.6875 85.8125 10.585938 87.433594 10.746094 L 91.335938 11.132812 C 92.386719 11.238281 93.515625 11.058594 93.855469 10.738281 C 94.195312 10.414062 93.617188 10.066406 92.566406 9.960938 Z M 92.566406 9.960938 "/>
<path style=" stroke:none;fill-rule:nonzero;fill:rgb(0%,0%,0%);fill-opacity:1;" d="M 114.410156 11.328125 C 113.40625 11.1875 112.21875 11.324219 111.757812 11.632812 L 110.972656 12.167969 C 108.984375 13.511719 105.523438 14.621094 101.234375 15.289062 L 97.496094 15.871094 C 96.507812 16.027344 96.117188 16.394531 96.617188 16.699219 C 96.96875 16.914062 97.671875 17.035156 98.402344 17.035156 C 98.707031 17.035156 99.015625 17.015625 99.304688 16.96875 L 103.042969 16.386719 C 108.140625 15.59375 112.253906 14.277344 114.617188 12.675781 L 115.40625 12.140625 C 115.863281 11.832031 115.417969 11.46875 114.410156 11.328125 Z M 114.410156 11.328125 "/>
<path style=" stroke:none;fill-rule:nonzero;fill:rgb(98.823529%,39.607843%,49.411765%);fill-opacity:1;" d="M 60.472656 45.847656 C 59.070312 45.179688 57.804688 44.242188 57.484375 43.378906 L 56.777344 41.476562 C 56.605469 41.015625 55.648438 40.613281 54.265625 40.421875 L 49.214844 39.730469 C 47.386719 39.480469 46.523438 38.828125 47.296875 38.257812 C 47.542969 38.074219 47.84375 37.914062 48.054688 37.785156 C 48.5625 37.480469 47.765625 37.121094 46.632812 37.160156 L 36.9375 38.230469 C 35.535156 38.464844 35.160156 38.980469 36.046875 39.375 L 49.378906 45.289062 C 53.132812 46.953125 57.167969 46.925781 58.804688 46.824219 C 60.359375 46.734375 61.261719 46.21875 60.472656 45.847656 Z M 60.472656 45.847656 "/>
<path style=" stroke:none;fill-rule:nonzero;fill:rgb(0%,0%,0%);fill-opacity:1;" d="M 62.15625 45.511719 C 60.757812 44.847656 59.730469 44.003906 59.472656 43.308594 L 58.765625 41.40625 C 58.515625 40.730469 57.105469 40.140625 55.082031 39.859375 L 50.03125 39.167969 C 49.195312 39.054688 48.796875 38.753906 49.144531 38.496094 C 49.300781 38.378906 49.5 38.265625 49.671875 38.164062 L 49.835938 38.066406 C 50.410156 37.722656 50.320312 37.3125 49.605469 36.996094 C 48.890625 36.675781 47.664062 36.503906 46.40625 36.550781 C 46.257812 36.554688 46.105469 36.566406 45.960938 36.582031 L 36.265625 37.65625 C 36.171875 37.664062 36.082031 37.675781 35.996094 37.691406 C 34.835938 37.882812 33.992188 38.210938 33.695312 38.59375 C 33.390625 38.980469 33.648438 39.390625 34.402344 39.726562 L 47.738281 45.636719 C 51.21875 47.179688 55.066406 47.476562 57.515625 47.476562 C 58.195312 47.476562 58.765625 47.457031 59.195312 47.429688 C 60.65625 47.34375 61.867188 47.042969 62.441406 46.628906 C 62.960938 46.253906 62.859375 45.847656 62.15625 45.511719 Z M 58.425781 46.222656 C 57.234375 46.292969 54.128906 46.3125 51.027344 44.9375 L 37.691406 39.023438 C 37.558594 38.964844 37.558594 38.914062 37.585938 38.882812 C 37.613281 38.847656 37.683594 38.816406 37.796875 38.792969 L 45.578125 37.933594 C 45.53125 37.960938 45.492188 37.992188 45.449219 38.023438 C 44.273438 38.890625 45.597656 39.90625 48.398438 40.292969 L 53.453125 40.984375 C 54.1875 41.085938 54.699219 41.300781 54.789062 41.546875 L 55.496094 43.449219 C 55.820312 44.324219 57.03125 45.335938 58.742188 46.15625 C 58.703125 46.179688 58.601562 46.210938 58.425781 46.222656 Z M 58.425781 46.222656 "/>
<path style=" stroke:none;fill-rule:nonzero;fill:rgb(98.823529%,39.607843%,49.411765%);fill-opacity:1;" d="M 103.914062 44.996094 C 102.386719 44.355469 100.953125 43.441406 100.472656 42.585938 L 99.417969 40.699219 C 99.160156 40.238281 98.132812 39.855469 96.714844 39.691406 L 91.546875 39.085938 C 89.675781 38.867188 88.695312 38.230469 89.359375 37.648438 C 89.570312 37.460938 89.839844 37.296875 90.027344 37.164062 C 90.476562 36.851562 89.617188 36.507812 88.496094 36.566406 L 79.015625 37.804688 C 77.65625 38.058594 77.375 38.582031 78.332031 38.960938 L 92.734375 44.628906 C 96.789062 46.226562 100.8125 46.128906 102.429688 46.003906 C 103.960938 45.882812 104.765625 45.355469 103.914062 44.996094 Z M 103.914062 44.996094 "/>
<path style=" stroke:none;fill-rule:nonzero;fill:rgb(0%,0%,0%);fill-opacity:1;" d="M 105.527344 44.632812 C 104.011719 43.996094 102.828125 43.171875 102.445312 42.480469 L 101.390625 40.59375 C 101.015625 39.921875 99.496094 39.355469 97.425781 39.113281 L 92.253906 38.511719 C 91.398438 38.410156 90.945312 38.117188 91.246094 37.855469 C 91.382812 37.734375 91.554688 37.617188 91.710938 37.515625 L 91.859375 37.414062 C 92.367188 37.058594 92.203125 36.652344 91.429688 36.347656 C 90.65625 36.039062 89.402344 35.894531 88.15625 35.960938 C 88.003906 35.96875 87.855469 35.980469 87.714844 36 L 78.234375 37.238281 C 78.140625 37.25 78.054688 37.261719 77.972656 37.277344 C 76.84375 37.488281 76.066406 37.832031 75.835938 38.222656 C 75.609375 38.609375 75.941406 39.019531 76.753906 39.335938 L 91.15625 45.007812 C 94.65625 46.386719 98.277344 46.679688 100.734375 46.679688 C 101.648438 46.679688 102.398438 46.640625 102.925781 46.597656 C 104.371094 46.484375 105.527344 46.167969 106.023438 45.742188 C 106.46875 45.359375 106.292969 44.953125 105.527344 44.632812 Z M 101.9375 45.40625 C 100.757812 45.496094 97.664062 45.570312 94.3125 44.25 L 79.910156 38.582031 C 79.765625 38.523438 79.757812 38.472656 79.777344 38.441406 C 79.796875 38.40625 79.863281 38.375 79.972656 38.347656 L 87.578125 37.355469 C 87.539062 37.382812 87.503906 37.414062 87.46875 37.445312 C 86.453125 38.332031 87.964844 39.324219 90.832031 39.660156 L 96.003906 40.265625 C 96.757812 40.351562 97.308594 40.558594 97.445312 40.800781 L 98.5 42.6875 C 98.984375 43.558594 100.382812 44.546875 102.242188 45.335938 C 102.203125 45.359375 102.109375 45.394531 101.9375 45.40625 Z M 101.9375 45.40625 "/>
<path style=" stroke:none;fill-rule:nonzero;fill:rgb(0%,0%,0%);fill-opacity:1;" d="M 130.914062 29.648438 C 130.449219 28.582031 128.371094 27.683594 125.375 27.257812 L 120.035156 26.476562 C 119.035156 26.328125 117.84375 26.460938 117.367188 26.769531 C 116.890625 27.074219 117.316406 27.441406 118.3125 27.589844 L 123.671875 28.371094 C 125.4375 28.625 126.664062 29.164062 126.945312 29.8125 C 127.292969 30.609375 126.21875 31.398438 124.019531 31.96875 L 95.71875 39.144531 C 94.867188 39.359375 94.746094 39.75 95.449219 40.011719 C 95.84375 40.15625 96.414062 40.234375 96.992188 40.234375 C 97.441406 40.234375 97.894531 40.1875 98.265625 40.09375 L 126.585938 32.914062 C 129.820312 32.074219 131.4375 30.855469 130.914062 29.648438 Z M 130.914062 29.648438 "/>
<path style=" stroke:none;fill-rule:nonzero;fill:rgb(0%,0%,0%);fill-opacity:1;" d="M 111.191406 31.089844 C 110.996094 30.777344 110.289062 30.523438 109.304688 30.417969 C 108.703125 30.351562 107.953125 30.265625 107.136719 30.175781 C 106.101562 30.054688 104.949219 30.21875 104.5625 30.535156 C 104.175781 30.855469 104.703125 31.207031 105.742188 31.328125 C 105.90625 31.347656 106.0625 31.363281 106.21875 31.382812 L 88.539062 36.136719 C 87.707031 36.363281 87.625 36.75 88.351562 37.007812 C 88.746094 37.144531 89.300781 37.214844 89.859375 37.214844 C 90.328125 37.214844 90.796875 37.167969 91.175781 37.0625 L 110.25 31.933594 C 111.023438 31.726562 111.382812 31.402344 111.191406 31.089844 Z M 111.191406 31.089844 "/>
<path style=" stroke:none;fill-rule:nonzero;fill:rgb(0%,0%,0%);fill-opacity:1;" d="M 120.679688 26.773438 C 120.503906 26.4375 119.800781 26.15625 118.84375 26.023438 L 107.140625 24.28125 C 106.144531 24.132812 104.945312 24.261719 104.464844 24.566406 C 103.984375 24.871094 104.398438 25.238281 105.394531 25.386719 L 116.183594 26.992188 L 105.203125 30.144531 C 104.910156 30.230469 104.492188 30.257812 104.164062 30.21875 L 87.96875 28.25 C 87.929688 28.242188 87.890625 28.238281 87.851562 28.234375 C 85.484375 28 83.546875 27.375 82.796875 26.609375 C 82.148438 25.941406 82.515625 25.277344 83.804688 24.78125 L 86.363281 23.792969 C 87.054688 23.527344 86.914062 23.140625 86.046875 22.929688 C 85.183594 22.714844 83.921875 22.757812 83.234375 23.027344 L 80.671875 24.011719 C 78.554688 24.828125 77.929688 25.90625 78.964844 26.960938 C 80.074219 28.101562 82.976562 29.035156 86.546875 29.398438 L 102.742188 31.371094 C 103.3125 31.433594 103.902344 31.464844 104.484375 31.464844 C 105.746094 31.464844 106.976562 31.320312 107.9375 31.042969 L 119.679688 27.671875 C 120.484375 27.441406 120.859375 27.105469 120.679688 26.773438 Z M 120.679688 26.773438 "/>
<path style=" stroke:none;fill-rule:nonzero;fill:rgb(0%,0%,0%);fill-opacity:1;" d="M 95.71875 29.363281 C 94.886719 29.140625 93.621094 29.167969 92.898438 29.425781 L 84.046875 32.542969 L 72.527344 30.246094 L 82.125 26.027344 C 82.761719 25.75 82.539062 25.367188 81.632812 25.171875 C 80.730469 24.976562 79.480469 25.042969 78.847656 25.320312 L 69.25 29.542969 C 68.609375 29.820312 68.378906 30.15625 68.59375 30.492188 C 68.808594 30.828125 69.4375 31.113281 70.371094 31.296875 L 81.878906 33.574219 C 82.546875 33.707031 83.304688 33.773438 84.0625 33.773438 C 85.203125 33.773438 86.335938 33.625 87.125 33.347656 L 95.921875 30.230469 C 96.644531 29.976562 96.554688 29.585938 95.71875 29.363281 Z M 95.71875 29.363281 "/>
<path style=" stroke:none;fill-rule:nonzero;fill:rgb(0%,0%,0%);fill-opacity:1;" d="M 84.242188 32.75 C 83.398438 32.527344 82.132812 32.558594 81.417969 32.816406 L 80.015625 33.328125 C 78.496094 33.878906 76.777344 34.378906 74.90625 34.820312 L 53.3125 39.875 C 52.433594 40.078125 52.265625 40.464844 52.933594 40.734375 C 53.328125 40.894531 53.925781 40.976562 54.53125 40.976562 C 54.953125 40.976562 55.378906 40.9375 55.742188 40.851562 L 77.332031 35.796875 C 79.4375 35.304688 81.367188 34.742188 83.070312 34.121094 L 84.46875 33.613281 C 85.1875 33.355469 85.082031 32.96875 84.242188 32.75 Z M 84.242188 32.75 "/>
<path style=" stroke:none;fill-rule:nonzero;fill:rgb(0%,0%,0%);fill-opacity:1;" d="M 71.851562 30.21875 C 70.945312 30.027344 69.699219 30.09375 69.066406 30.371094 L 68.648438 30.558594 C 67.824219 30.921875 66.847656 31.253906 65.746094 31.542969 L 46.296875 36.636719 C 45.453125 36.859375 45.355469 37.246094 46.070312 37.503906 C 46.46875 37.648438 47.03125 37.722656 47.59375 37.722656 C 48.054688 37.722656 48.515625 37.671875 48.894531 37.574219 L 68.34375 32.476562 C 69.707031 32.121094 70.914062 31.710938 71.9375 31.261719 L 72.351562 31.074219 C 72.984375 30.796875 72.761719 30.414062 71.851562 30.21875 Z M 71.851562 30.21875 "/>
<path style=" stroke:none;fill-rule:nonzero;fill:rgb(0%,0%,0%);fill-opacity:1;" d="M 61.289062 38.609375 C 58.78125 37.746094 55.316406 36.558594 53.042969 35.808594 C 52.289062 35.558594 51.023438 35.546875 50.210938 35.777344 C 49.40625 36.011719 49.359375 36.398438 50.117188 36.648438 C 52.363281 37.386719 55.804688 38.570312 58.296875 39.429688 C 58.691406 39.566406 59.242188 39.636719 59.792969 39.636719 C 60.265625 39.636719 60.742188 39.582031 61.125 39.480469 C 61.949219 39.253906 62.023438 38.863281 61.289062 38.609375 Z M 61.289062 38.609375 "/>
<path style=" stroke:none;fill-rule:nonzero;fill:rgb(0%,0%,0%);fill-opacity:1;" d="M 103.269531 37.855469 C 100.675781 36.96875 98.078125 36.085938 95.554688 35.230469 C 94.8125 34.976562 93.546875 34.957031 92.726562 35.1875 C 91.90625 35.414062 91.84375 35.804688 92.585938 36.054688 C 95.105469 36.910156 97.703125 37.792969 100.292969 38.679688 C 100.6875 38.8125 101.234375 38.882812 101.78125 38.882812 C 102.257812 38.882812 102.738281 38.832031 103.117188 38.726562 C 103.941406 38.496094 104.007812 38.109375 103.269531 37.855469 Z M 103.269531 37.855469 "/>
<path style=" stroke:none;fill-rule:nonzero;fill:rgb(0%,0%,0%);fill-opacity:1;" d="M 190.960938 31.542969 C 190.007812 31.28125 188.75 31.175781 187.5 31.246094 L 151.953125 33.332031 C 150.429688 33.421875 149.21875 33.761719 148.804688 34.222656 C 148.390625 34.683594 148.855469 35.167969 150.015625 35.484375 L 158.769531 37.910156 L 117.945312 51.089844 C 117.710938 51.164062 117.382812 51.207031 117.042969 51.207031 L 60.75 51.207031 C 58.195312 51.207031 55.757812 51.453125 53.699219 51.914062 L 16.128906 60.351562 C 14.132812 60.800781 13.515625 61.648438 14.71875 62.28125 C 15.359375 62.617188 16.390625 62.859375 17.621094 62.953125 C 18.011719 62.984375 18.410156 63 18.804688 63 C 19.648438 63 20.476562 62.929688 21.222656 62.792969 L 60.019531 55.640625 C 60.351562 55.578125 60.738281 55.546875 61.128906 55.554688 L 119.21875 56.46875 C 123.746094 56.539062 128.210938 56.027344 131.46875 55.054688 L 174.601562 42.230469 L 182.851562 44.492188 C 184.011719 44.8125 185.628906 44.894531 187.070312 44.71875 C 188.511719 44.539062 189.480469 44.132812 189.59375 43.65625 L 192.304688 32.566406 C 192.398438 32.175781 191.910156 31.804688 190.960938 31.542969 Z M 185.601562 43.570312 L 185.515625 43.574219 L 177.265625 41.3125 C 175.6875 40.878906 173.261719 40.894531 171.742188 41.347656 L 128.679688 54.171875 C 126.21875 54.90625 122.851562 55.296875 119.421875 55.242188 L 61.332031 54.324219 C 60.144531 54.308594 58.976562 54.398438 57.957031 54.585938 L 19.164062 61.738281 C 18.941406 61.78125 18.726562 61.773438 18.617188 61.761719 C 18.484375 61.753906 18.300781 61.726562 18.175781 61.660156 C 18 61.566406 18.144531 61.425781 18.492188 61.347656 L 56.0625 52.90625 C 57.429688 52.601562 59.050781 52.4375 60.75 52.4375 L 117.039062 52.4375 C 118.46875 52.4375 119.855469 52.253906 120.84375 51.9375 L 161.667969 38.757812 C 162.429688 38.511719 162.828125 38.1875 162.78125 37.847656 C 162.738281 37.507812 162.257812 37.195312 161.429688 36.96875 L 152.660156 34.5625 L 152.703125 34.539062 L 188.25 32.457031 L 188.3125 32.472656 Z M 185.601562 43.570312 "/>
<path style=" stroke:none;fill-rule:nonzero;fill:rgb(96.078431%,78.431373%,29.803922%);fill-opacity:1;" d="M 92.273438 4.929688 C 88.667969 4.730469 85.867188 3.871094 85.144531 2.785156 C 85.144531 2.738281 84.824219 2.738281 84.824219 2.785156 C 84.101562 3.871094 81.300781 4.730469 77.695312 4.929688 C 77.539062 4.929688 77.539062 5 77.695312 5.027344 C 81.300781 5.222656 84.101562 6.085938 84.824219 7.167969 C 84.824219 7.214844 85.144531 7.214844 85.144531 7.167969 C 85.867188 6.085938 88.667969 5.222656 92.273438 5.027344 C 92.429688 5 92.429688 4.929688 92.273438 4.929688 Z M 92.273438 4.929688 "/>
<path style=" stroke:none;fill-rule:nonzero;fill:rgb(52.941176%,81.960784%,27.843137%);fill-opacity:1;" d="M 171.28125 28.074219 C 168.726562 27.9375 166.738281 27.324219 166.226562 26.554688 C 166.226562 26.519531 166 26.519531 166 26.554688 C 165.488281 27.324219 163.5 27.9375 160.945312 28.074219 C 160.828125 28.074219 160.828125 28.128906 160.945312 28.144531 C 163.5 28.285156 165.488281 28.894531 166 29.664062 C 166 29.699219 166.226562 29.699219 166.226562 29.664062 C 166.738281 28.894531 168.726562 28.285156 171.28125 28.144531 C 171.394531 28.128906 171.394531 28.074219 171.28125 28.074219 Z M 171.28125 28.074219 "/>
<path style=" stroke:none;fill-rule:nonzero;fill:rgb(98.823529%,39.607843%,49.411765%);fill-opacity:1;" d="M 75.683594 60.070312 L 73.84375 60.070312 L 73.84375 59.503906 C 73.84375 59.0625 72.722656 58.71875 71.28125 58.71875 C 69.839844 58.71875 68.71875 59.085938 68.71875 59.503906 L 68.71875 60.070312 L 66.875 60.070312 C 65.433594 60.070312 64.3125 60.417969 64.3125 60.859375 C 64.3125 61.300781 65.515625 61.644531 66.875 61.644531 L 68.71875 61.644531 L 68.71875 62.210938 C 68.71875 62.65625 69.839844 63 71.28125 63 C 72.722656 63 73.84375 62.628906 73.84375 62.210938 L 73.84375 61.644531 L 75.683594 61.644531 C 77.125 61.644531 78.246094 61.300781 78.246094 60.859375 C 78.246094 60.417969 77.046875 60.070312 75.683594 60.070312 Z M 75.683594 60.070312 "/>
<path style=" stroke:none;fill-rule:nonzero;fill:rgb(43.921569%,83.921569%,97.647059%);fill-opacity:1;" d="M 103.402344 0 C 101.898438 0 100.679688 0.375 100.679688 0.835938 C 100.679688 1.300781 101.898438 1.671875 103.402344 1.671875 C 104.90625 1.671875 106.125 1.300781 106.125 0.835938 C 106.125 0.375 104.90625 0 103.402344 0 Z M 103.402344 0 "/>
<path style=" stroke:none;fill-rule:nonzero;fill:rgb(96.078431%,78.431373%,29.803922%);fill-opacity:1;" d="M 94.421875 58.035156 C 92.921875 58.035156 91.699219 58.410156 91.699219 58.871094 C 91.699219 59.335938 92.921875 59.707031 94.421875 59.707031 C 95.925781 59.707031 97.144531 59.335938 97.144531 58.871094 C 97.144531 58.410156 95.925781 58.035156 94.421875 58.035156 Z M 94.421875 58.035156 "/>
</g>
</svg>
