<?xml version="1.0" encoding="utf-8"?>
<!-- Generator: Adobe Illustrator 24.0.0, SVG Export Plug-In . SVG Version: 6.00 Build 0)  -->
<svg version="1.1" xmlns="http://www.w3.org/2000/svg" xmlns:xlink="http://www.w3.org/1999/xlink" x="0px" y="0px"
	 viewBox="0 0 256 256" enable-background="new 0 0 256 256" xml:space="preserve">
<g id="Layer_1">
</g>
<g id="Layer_2">
</g>
<g id="Layer_3">
</g>
<g id="Layer_4">
</g>
<g id="Layer_5">
</g>
<g id="Layer_6">
</g>
<g id="Layer_7">
</g>
<g id="Layer_8">
</g>
<g id="Layer_9">
</g>
<g id="Layer_10">
</g>
<g id="Layer_11">
</g>
<g id="Layer_12">
</g>
<g id="Layer_13">
</g>
<g id="Layer_14">
</g>
<g id="Layer_15">
</g>
<g id="Layer_16">
</g>
<g id="Layer_17">
</g>
<g id="Layer_18">
</g>
<g id="Layer_19">
</g>
<g id="Layer_20">
</g>
<g id="Layer_21">
</g>
<g id="Layer_22">
</g>
<g id="Layer_23">
</g>
<g id="Layer_24">
</g>
<g id="Layer_25">
</g>
<g id="Layer_26">
</g>
<g id="Layer_27">
</g>
<g id="Layer_28">
</g>
<g id="Layer_29">
</g>
<g id="Layer_30">
</g>
<g id="Layer_31">
</g>
<g id="Layer_32">
</g>
<g id="Layer_33">
</g>
<g id="Layer_34">
</g>
<g id="Layer_35">
</g>
<g id="Layer_36">
</g>
<g id="Layer_37">
</g>
<g id="Layer_38">
</g>
<g id="Layer_39">
</g>
<g id="Layer_40">
</g>
<g id="Layer_41">
</g>
<g id="Layer_42">
</g>
<g id="Layer_43">
</g>
<g id="Layer_44">
</g>
<g id="Layer_45">
</g>
<g id="Layer_46">
</g>
<g id="Layer_47">
</g>
<g id="Layer_48">
</g>
<g id="Layer_49">
</g>
<g id="Layer_50">
</g>
<g id="Layer_51">
</g>
<g id="Layer_52">
</g>
<g id="Layer_53">
</g>
<g id="Layer_54">
</g>
<g id="Layer_55">
</g>
<g id="Layer_56">
</g>
<g id="Layer_57">
</g>
<g id="Layer_58">
</g>
<g id="Layer_59">
</g>
<g id="Layer_60">
</g>
<g id="Layer_61">
</g>
<g id="Layer_62">
</g>
<g id="Layer_63">
</g>
<g id="Layer_64">
</g>
<g id="Layer_65">
</g>
<g id="Layer_66">
</g>
<g id="Layer_67">
</g>
<g id="Layer_68">
</g>
<g id="Layer_69">
</g>
<g id="Layer_70">
</g>
<g id="Layer_71">
	<g>
		<g>
			<g>
				<path fill="#70D6F9" d="M234.615,129.434l-44.388,8.464c-2.088,0.398-2.813,3.018-1.227,4.433l10.928,9.753
					c1.081,0.965,1.149,2.633,0.15,3.682l-50.982,53.553c-0.765,0.804-1.826,1.259-2.936,1.259H75.863
					c-2.635,0-5.202,0.837-7.33,2.393l-46.917,34.29c-1.43,1.045-1.973,3.022-1.08,4.552c0.963,1.649,3.068,2.169,4.678,1.204
					l48.448-29.069c0.843-0.506,1.818-0.75,2.8-0.699l72.543,3.72c4.982,0.256,9.846-1.571,13.429-5.043l53.775-52.121
					c0.965-0.936,2.49-0.967,3.493-0.072l10.302,9.195c1.586,1.416,4.107,0.398,4.266-1.722l3.381-45.062
					C237.779,130.462,236.273,129.118,234.615,129.434z"/>
			</g>
		</g>
		<g>
			<g>
				<g>
					<path fill="#F9D0B4" d="M155.494,113.02l-7.241-3.446c-0.028,0.381-0.192,0.757-0.505,1.049l-14.665,13.701
						c-0.191,0.179-0.402,0.327-0.62,0.46c1.212,0.453,2.326,0.862,3.201,1.172c0.819,0.29,1.019,1.352,0.365,1.924l-24.092,21.086
						c0.564,0.473,0.827,1.283,0.487,2.05c-0.228,0.515-0.549,1.173-0.814,1.91c-0.845,2.355,0.371,5.008,2.709,5.896l6.457,2.453
						l35.69-29.442C163.527,125.876,161.987,116.037,155.494,113.02z"/>
				</g>
			</g>
			<g>
				<g>
					<path fill="#F5C84C" d="M147.319,107.993l-15.079-7.306c-1.029,1.118-2.47,1.805-4.028,1.887
						c-6.606,0.348-15.86-2.885-20.145-4.962c-1.118-0.542-1.829-1.534-2.051-2.637l-3.316,4.159
						c-4.855,6.088-1.168,15.565,6.235,17.979l20.227,8.012c1.354,0.492,2.869,0.183,3.922-0.8l14.665-13.701
						C148.583,109.844,148.358,108.467,147.319,107.993z"/>
				</g>
			</g>
			<g>
				<g>
					<path fill="#F5C84C" d="M108.934,117.113c-5.532-1.805-8.986-7.553-8.353-12.884L88.523,121.47
						c-0.829,1.185-0.507,2.821,0.708,3.604l14.372,9.261c1.066,0.687,2.475,0.486,3.306-0.472l11.338-13.062L108.934,117.113z"/>
				</g>
			</g>
			<g>
				<g>
					<path fill="#F9D0B4" d="M103.603,134.335l-14.372-9.261c-0.264-0.17-0.477-0.386-0.654-0.623l-0.797,1.145
						c-1.155,1.659-2.518,3.162-4.056,4.474l-24.678,21.041c0.94,0.343,1.465,1.451,0.963,2.432
						c-0.257,0.501-0.615,1.14-0.921,1.861c-0.977,2.303,0.086,5.021,2.371,6.04l6.308,2.815l27.287-20.783
						c2.487-1.894,4.757-4.05,6.776-6.437c0.656-0.776,1.383-1.633,2.133-2.516C103.84,134.469,103.719,134.41,103.603,134.335z"/>
				</g>
			</g>
			<g>
				<g>
					<path fill="#DAE6F1" d="M64.059,146.837l-5.012,4.274c0.94,0.343,1.465,1.451,0.963,2.432c-0.257,0.501-0.615,1.14-0.921,1.861
						c-0.977,2.303,0.086,5.021,2.371,6.04l6.308,2.815l7.137-5.437C71.6,155.11,66.929,149.895,64.059,146.837z"/>
				</g>
			</g>
			<g>
				<g>
					<path fill="#DAE6F1" d="M117.113,144.438l-5.176,4.53c0.564,0.473,0.827,1.283,0.487,2.05c-0.228,0.515-0.549,1.173-0.814,1.91
						c-0.845,2.355,0.371,5.008,2.709,5.896l6.457,2.453l6.613-5.456C123.936,151.979,120.468,148.136,117.113,144.438z"/>
				</g>
			</g>
			<g>
				<g>
					
						<ellipse transform="matrix(0.2518 -0.9678 0.9678 0.2518 88.7532 175.3935)" fill="#F9D0B4" cx="157.809" cy="30.297" rx="15.669" ry="15.669"/>
				</g>
			</g>
			<g>
				<g>
					<g>
						<g>
							<path d="M174.668,23.523c-1.81-4.504-5.265-8.033-9.729-9.938c-4.465-1.906-9.403-1.958-13.905-0.147
								c-4.503,1.809-8.033,5.264-9.937,9.728c-1.905,4.464-1.958,9.402-0.148,13.905c1.81,4.504,5.264,8.033,9.728,9.938
								c2.292,0.979,4.709,1.468,7.128,1.468c2.292,0,4.586-0.439,6.777-1.32C173.879,43.421,178.404,32.819,174.668,23.523z
								 M162.719,42.518c-3.264,1.311-6.843,1.273-10.079-0.107c-3.235-1.381-5.739-3.938-7.051-7.202
								c-1.312-3.265-1.273-6.844,0.107-10.079s3.938-5.74,7.203-7.052c1.588-0.638,3.25-0.956,4.912-0.956
								c1.753,0,3.505,0.354,5.167,1.063c3.236,1.381,5.74,3.938,7.051,7.202C172.736,32.125,169.457,39.81,162.719,42.518z"/>
						</g>
					</g>
				</g>
			</g>
			<g>
				<g>
					<path fill="#F5C84C" d="M145.156,49.132l-26.212-8.44c-1.511-0.487-3.12,0.397-3.52,1.934l-4.325,16.62
						c-0.365,1.403,0.417,2.85,1.79,3.313l8.912,3.006c0.802,0.271,1.168,1.199,0.766,1.944l-16.187,24.964
						c-1.026,1.902-0.261,4.196,1.684,5.139c4.285,2.077,13.539,5.31,20.145,4.962c2.05-0.108,3.902-1.258,4.872-3.068
						l18.513-35.451C154.668,58.657,151.176,51.016,145.156,49.132z"/>
				</g>
			</g>
			<g>
				<g>
					<path fill="#FCA265" d="M163.891,75.939L152.68,58.652c0.184,1.858-0.135,3.737-1.083,5.403l-11.103,21.261l4.132,6.561
						c0.987,1.568,3.157,1.882,4.547,0.639l14.201-12.702C164.477,78.827,164.697,77.182,163.891,75.939z"/>
				</g>
			</g>
			<g>
				<g>
					<path fill="#F9D0B4" d="M195.077,82.735l-31.79-0.584l-0.91-1.446l-13.099,11.716l1.841,2.922
						c1.556,2.471,4.252,3.992,7.172,4.046l36.468,0.669c0.293,0.005,0.582-0.004,0.868-0.027c4.384-0.355,7.871-3.985,7.953-8.476
						C203.668,86.772,199.861,82.823,195.077,82.735z"/>
				</g>
			</g>
			<g>
				<g>
					<path fill="#F9D0B4" d="M109.954,41.287c-2.82-0.91-5.911-0.329-8.207,1.547L73.28,66.092
						c-3.734,3.051-4.288,8.551-1.237,12.286c1.887,2.31,4.71,3.402,7.473,3.179c1.705-0.138,3.387-0.777,4.812-1.941l24.784-20.25
						l1.91,0.617c-0.004-0.244,0.013-0.49,0.077-0.737l4.222-16.226L109.954,41.287z"/>
				</g>
			</g>
			<g>
				<g>
					<path fill="#FCA265" d="M118.945,40.692c-1.511-0.487-3.12,0.397-3.52,1.934l-4.325,16.62c-0.365,1.403,0.417,2.85,1.79,3.313
						l8.912,3.006c0.56,0.189,0.9,0.699,0.922,1.242l4.823-2.444c5.886-2.982,10.58-7.881,13.309-13.889l1.08-2.378L118.945,40.692z
						"/>
				</g>
			</g>
			<g>
				<g>
					<g>
						<g>
							<path d="M154.29,54.785c-1.521-3.864-4.653-6.867-8.377-8.036l-26.201-8.438c-1.37-0.439-2.882-0.296-4.146,0.397
								c-1.263,0.694-2.196,1.893-2.559,3.287l-4.324,16.62c-0.693,2.661,0.806,5.434,3.411,6.312l7.525,2.538l-15.333,23.646
								c-0.037,0.057-0.071,0.114-0.103,0.174c-0.818,1.517-0.98,3.244-0.458,4.863c0.527,1.633,1.682,2.951,3.252,3.713
								c4.49,2.176,13.345,5.236,20.239,5.236c0.382,0,0.758-0.01,1.127-0.029c2.917-0.152,5.578-1.832,6.957-4.406l18.47-35.371
								C155.519,62.218,155.708,58.389,154.29,54.785z M149.381,62.898L130.88,98.325c-0.554,1.034-1.601,1.688-2.8,1.752
								c-6.034,0.31-14.812-2.723-18.922-4.714c-0.331-0.161-0.571-0.428-0.675-0.75c-0.066-0.207-0.106-0.523,0.066-0.886
								l16.118-24.858c0.037-0.057,0.071-0.115,0.104-0.175c0.542-1.006,0.612-2.191,0.193-3.254
								c-0.419-1.062-1.28-1.88-2.361-2.245l-8.912-3.006c-0.129-0.044-0.204-0.182-0.169-0.313l4.324-16.62
								c0.019-0.073,0.062-0.129,0.128-0.165c0.065-0.036,0.135-0.042,0.207-0.02l26.211,8.44c0.006,0.002,0.013,0.004,0.02,0.006
								c2.299,0.72,4.253,2.626,5.228,5.1C150.499,58.807,150.421,61.066,149.381,62.898z"/>
						</g>
					</g>
				</g>
			</g>
			<g>
				<g>
					<path d="M165.989,74.578l-11.03-17.008c-0.751-1.157-2.298-1.488-3.458-0.737c-1.158,0.751-1.488,2.3-0.737,3.458l11.03,17.008
						c0.137,0.211,0.1,0.484-0.087,0.652l-14.201,12.702c-0.144,0.128-0.298,0.138-0.406,0.123c-0.107-0.015-0.256-0.067-0.358-0.23
						l-3.854-6.121c-0.736-1.169-2.279-1.52-3.448-0.783c-1.168,0.735-1.519,2.279-0.784,3.447l3.854,6.121
						c0.865,1.374,2.284,2.292,3.894,2.518c0.257,0.036,0.514,0.054,0.77,0.054c1.345,0,2.648-0.492,3.665-1.401l14.2-12.701
						C167.076,79.857,167.476,76.871,165.989,74.578z"/>
				</g>
			</g>
			<g>
				<g>
					<path d="M202.955,83.649c-2.069-2.146-4.851-3.358-7.832-3.414l-30.44-0.559l-0.03-0.048c-0.736-1.169-2.279-1.521-3.448-0.783
						c-1.168,0.735-1.519,2.279-0.784,3.447l0.75,1.19c0.449,0.713,1.227,1.152,2.07,1.168l31.79,0.584
						c1.646,0.03,3.182,0.699,4.324,1.885c1.143,1.185,1.755,2.744,1.725,4.39c-0.058,3.183-2.489,5.774-5.657,6.031
						c-0.202,0.017-0.405,0.023-0.618,0.018l-36.468-0.669c-2.084-0.038-3.992-1.114-5.103-2.878l-1.685-2.675
						c-0.735-1.168-2.279-1.52-3.447-0.783c-1.168,0.735-1.519,2.279-0.783,3.447l1.684,2.675c2.012,3.195,5.467,5.144,9.242,5.214
						l36.464,0.668c0.076,0.002,0.151,0.003,0.226,0.003c0.301,0,0.6-0.013,0.894-0.036c5.738-0.464,10.146-5.16,10.25-10.923
						C206.134,88.621,205.025,85.797,202.955,83.649z"/>
				</g>
			</g>
			<g>
				<g>
					<path d="M115.595,40.481l-4.874-1.574c-3.645-1.18-7.592-0.434-10.556,1.991L71.698,64.156
						c-4.796,3.918-5.509,11.007-1.591,15.804c2.143,2.622,5.345,4.125,8.705,4.125c0.301,0,0.604-0.012,0.907-0.036
						c2.277-0.186,4.418-1.049,6.191-2.498l23.73-19.388l0.236,0.076c1.312,0.426,2.723-0.296,3.147-1.61
						c0.424-1.313-0.296-2.723-1.61-3.147l-1.532-0.495c-0.806-0.261-1.693-0.094-2.35,0.443L82.747,77.679
						c-0.984,0.805-2.172,1.283-3.432,1.386c-2.046,0.165-4.041-0.683-5.336-2.269c-2.174-2.661-1.778-6.595,0.882-8.769
						l28.468-23.258c1.646-1.344,3.835-1.757,5.856-1.104l4.873,1.574c1.312,0.428,2.723-0.296,3.147-1.61
						C117.63,42.315,116.909,40.906,115.595,40.481z"/>
				</g>
			</g>
			<g>
				<g>
					<path d="M142.874,46.032c-1.255-0.571-2.738-0.016-3.31,1.242l-0.983,2.165c-2.485,5.47-6.805,9.978-12.163,12.693
						l-4.667,2.365c-1.231,0.624-1.724,2.128-1.1,3.359c0.44,0.87,1.32,1.371,2.232,1.371c0.38,0,0.766-0.088,1.128-0.271
						l4.667-2.364c6.368-3.228,11.501-8.584,14.455-15.085l0.983-2.165C144.687,48.085,144.131,46.604,142.874,46.032z"/>
				</g>
			</g>
			<g>
				<g>
					<path fill="#FC657E" d="M75.518,186.296c-1.753-2.709-3.334-6.512-3.735-10.025l-0.881-7.73
						c-0.214-1.881-1.407-3.509-3.136-4.281l-6.309-2.816c-2.281-1.018-3.357-3.672-2.396-5.978
						c0.311-0.746,0.683-1.407,0.947-1.923c0.635-1.238-0.359-2.701-1.771-2.538l-12.108,4.352
						c-1.754,0.939-2.223,3.045-1.117,4.641l16.653,24.025c4.688,6.764,9.724,6.654,11.772,6.255
						C75.375,189.9,76.501,187.814,75.518,186.296z"/>
				</g>
			</g>
			<g>
				<g>
					<g>
						<g>
							<path d="M77.617,184.938c-1.744-2.695-3.027-6.124-3.35-8.95l-0.881-7.729c-0.312-2.746-2.075-5.153-4.601-6.282
								l-6.309-2.815c-1.044-0.466-1.541-1.691-1.107-2.731c0.198-0.475,0.443-0.94,0.659-1.352l0.206-0.394
								c0.717-1.397,0.606-3.068-0.288-4.359c-0.895-1.292-2.425-1.992-3.992-1.803c-0.191,0.021-0.379,0.065-0.561,0.131
								l-12.107,4.353c-0.115,0.041-0.226,0.091-0.333,0.148c-1.453,0.777-2.502,2.116-2.878,3.674
								c-0.377,1.563-0.055,3.238,0.885,4.594l16.653,24.025c4.348,6.273,9.154,7.482,12.213,7.482c0.847,0,1.561-0.093,2.093-0.196
								c1.826-0.357,3.342-1.572,4.056-3.251C78.625,187.95,78.495,186.295,77.617,184.938z M72.961,187.824
								c-1.488,0.293-5.366,0.361-9.239-5.226l-16.653-24.025c-0.167-0.241-0.165-0.445-0.134-0.573
								c0.035-0.146,0.125-0.27,0.266-0.37l9.714-3.492c-0.054,0.119-0.107,0.241-0.159,0.366c-1.469,3.523,0.184,7.661,3.685,9.223
								l6.308,2.814c0.917,0.41,1.558,1.284,1.671,2.282l0.881,7.73c0.406,3.563,1.92,7.668,4.057,11.004
								C73.307,187.643,73.182,187.781,72.961,187.824z"/>
						</g>
					</g>
				</g>
			</g>
			<g>
				<g>
					<path fill="#FC657E" d="M129.764,182.84c-1.904-2.605-3.698-6.313-4.297-9.798l-1.317-7.668
						c-0.321-1.866-1.603-3.424-3.373-4.096l-6.458-2.454c-2.335-0.887-3.56-3.476-2.731-5.832c0.268-0.763,0.602-1.444,0.836-1.974
						c0.563-1.272-0.511-2.676-1.912-2.434l-11.841,5.031c-1.698,1.037-2.047,3.166-0.852,4.696l17.988,23.043
						c5.064,6.487,10.086,6.093,12.107,5.578C129.825,186.446,130.83,184.299,129.764,182.84z"/>
				</g>
			</g>
			<g>
				<g>
					<g>
						<g>
							<path d="M131.782,181.365c-1.894-2.593-3.37-5.943-3.851-8.746l-1.317-7.67c-0.469-2.724-2.365-5.026-4.949-6.009
								l-6.459-2.454c-1.069-0.406-1.634-1.602-1.26-2.665c0.17-0.482,0.387-0.958,0.578-1.378l0.186-0.413
								c0.636-1.436,0.431-3.098-0.535-4.336c-0.967-1.24-2.532-1.841-4.088-1.574c-0.189,0.033-0.375,0.088-0.551,0.163
								l-11.841,5.031c-0.112,0.048-0.221,0.104-0.326,0.167c-1.406,0.859-2.377,2.256-2.664,3.833
								c-0.288,1.582,0.129,3.235,1.144,4.535l17.988,23.043c4.37,5.599,8.889,6.797,11.957,6.796c1.141,0,2.082-0.165,2.739-0.332
								c1.803-0.46,3.249-1.76,3.866-3.477C132.959,184.314,132.735,182.669,131.782,181.365z M127.298,184.511
								c-1.471,0.369-5.339,0.663-9.521-4.694l-17.988-23.043c-0.18-0.231-0.19-0.435-0.166-0.564
								c0.027-0.148,0.109-0.277,0.244-0.386l9.5-4.036c-0.047,0.122-0.093,0.246-0.138,0.374c-1.267,3.602,0.618,7.639,4.201,8.999
								l6.458,2.454c0.939,0.356,1.628,1.193,1.798,2.182l1.317,7.669c0.607,3.535,2.352,7.548,4.674,10.757
								C127.632,184.31,127.515,184.455,127.298,184.511z"/>
						</g>
					</g>
				</g>
			</g>
			<g>
				<g>
					<path d="M163.484,120.485c-0.582-4.346-3.175-7.984-6.917-9.724l-6.669-3.174c-1.248-0.594-2.739-0.063-3.332,1.184
						c-0.593,1.247-0.063,2.738,1.183,3.332l6.69,3.184c2.206,1.024,3.734,3.216,4.088,5.861c0.434,3.241-0.906,6.44-3.653,8.759
						l-35.342,29.154c-1.065,0.879-1.216,2.454-0.338,3.52c0.495,0.6,1.209,0.909,1.93,0.909c0.56,0,1.124-0.188,1.589-0.571
						l35.363-29.173C162.118,130.337,164.139,125.38,163.484,120.485z"/>
				</g>
			</g>
			<g>
				<g>
					<g>
						<g>
							<path d="M138.853,126.341c-0.245-1.28-1.125-2.305-2.354-2.74c-0.753-0.267-1.688-0.609-2.708-0.988
								c-1.292-0.482-2.733,0.177-3.215,1.471s0.177,2.733,1.472,3.215c0.203,0.076,0.402,0.149,0.598,0.223l-22.08,19.326
								c-1.039,0.909-1.144,2.488-0.235,3.527c0.495,0.564,1.187,0.854,1.882,0.854c0.584,0,1.171-0.204,1.646-0.619l23.816-20.846
								C138.643,128.916,139.095,127.604,138.853,126.341z"/>
						</g>
					</g>
				</g>
			</g>
			<g>
				<g>
					<g>
						<g>
							<path d="M150.704,108.79c-0.222-1.354-1.099-2.503-2.295-3.047l-14.616-7.081c-1.242-0.6-2.737-0.082-3.34,1.16
								c-0.602,1.242-0.083,2.737,1.16,3.34l13.473,6.526l-13.71,12.809c-0.367,0.345-0.888,0.451-1.295,0.303l-20.227-8.011
								c-0.048-0.02-0.096-0.036-0.145-0.053c-2.96-0.966-5.379-3.498-6.311-6.608c-0.811-2.708-0.354-5.418,1.255-7.436
								l3.197-4.009c0.861-1.079,0.684-2.652-0.396-3.514c-1.08-0.86-2.652-0.683-3.513,0.396l-3.197,4.009
								c-2.646,3.318-3.424,7.688-2.136,11.987c1.388,4.631,5.013,8.418,9.473,9.902l20.223,8.008
								c0.712,0.26,1.447,0.387,2.176,0.386c1.573,0,3.112-0.59,4.309-1.707l14.666-13.702
								C150.458,111.513,150.925,110.145,150.704,108.79z"/>
						</g>
					</g>
				</g>
			</g>
			<g>
				<g>
					<path d="M119.534,119.319c-1.043-0.906-2.622-0.794-3.526,0.249l-11.051,12.665l-14.385-9.33l11.987-17.142
						c0.791-1.132,0.515-2.69-0.616-3.481c-1.13-0.791-2.69-0.516-3.481,0.616l-11.987,17.142c-0.794,1.135-1.084,2.508-0.817,3.867
						c0.267,1.358,1.055,2.521,2.22,3.271l14.371,9.26c0.834,0.539,1.782,0.799,2.725,0.799c1.426,0,2.84-0.597,3.824-1.732
						l10.986-12.656C120.688,121.803,120.577,120.225,119.534,119.319z"/>
				</g>
			</g>
			<g>
				<g>
					<path d="M105.197,133.07c-1.051-0.894-2.63-0.766-3.523,0.287l-1.753,2.067c-1.895,2.241-4.042,4.281-6.381,6.062
						l-26.962,20.536c-1.099,0.837-1.311,2.405-0.474,3.504c0.492,0.646,1.237,0.985,1.991,0.985c0.528,0,1.061-0.167,1.513-0.511
						l26.962-20.536c2.628-2.001,5.04-4.293,7.169-6.812l1.746-2.06C106.378,135.542,106.25,133.964,105.197,133.07z"/>
				</g>
			</g>
			<g>
				<g>
					<path d="M89.729,122.795c-1.134-0.788-2.691-0.507-3.48,0.625l-0.521,0.749c-1.03,1.48-2.25,2.826-3.625,3.999l-24.289,20.709
						c-1.051,0.896-1.176,2.474-0.28,3.524c0.495,0.58,1.197,0.878,1.903,0.878c0.574,0,1.15-0.196,1.621-0.598l24.289-20.709
						c1.702-1.451,3.211-3.116,4.486-4.948l0.521-0.749C91.142,125.142,90.862,123.584,89.729,122.795z"/>
				</g>
			</g>
			<g>
				<g>
					<path d="M76.534,156.894c-3.129-3.515-7.455-8.342-10.296-11.387c-0.941-1.009-2.523-1.063-3.533-0.122
						c-1.01,0.942-1.064,2.524-0.122,3.534c2.808,3.009,7.106,7.805,10.217,11.299c0.494,0.555,1.18,0.838,1.868,0.838
						c0.591,0,1.185-0.209,1.662-0.633C77.361,159.505,77.452,157.925,76.534,156.894z"/>
				</g>
			</g>
			<g>
				<g>
					<path d="M128.96,153.829c-3.237-3.6-6.484-7.198-9.635-10.674c-0.928-1.022-2.508-1.102-3.531-0.172
						c-1.023,0.927-1.1,2.508-0.173,3.531c3.146,3.47,6.389,7.063,9.622,10.658c0.494,0.549,1.175,0.828,1.86,0.828
						c0.595,0,1.193-0.212,1.67-0.641C129.8,156.437,129.884,154.856,128.96,153.829z"/>
				</g>
			</g>
		</g>
		<g>
			<g>
				<g>
					<g>
						<path d="M238.466,128.174c-1.185-1.058-2.757-1.489-4.32-1.196h0l-44.387,8.465c-1.907,0.363-3.415,1.751-3.933,3.622
							s0.06,3.838,1.509,5.132l10.932,9.846l-50.981,53.553c-0.292,0.307-0.703,0.482-1.126,0.482H75.863
							c-3.188,0-6.232,0.994-8.805,2.875l-46.917,34.29c-2.491,1.82-3.265,5.261-1.763,7.831c0.802,1.374,2.09,2.348,3.627,2.741
							c0.489,0.126,0.984,0.188,1.476,0.188c1.054,0,2.091-0.285,3.02-0.842l48.45-29.069c0.417-0.25,0.896-0.372,1.384-0.345
							l72.542,3.72c5.654,0.286,11.231-1.804,15.297-5.746l53.864-52.122l10.302,9.195c1.449,1.294,3.468,1.644,5.269,0.918
							c1.8-0.727,3.009-2.382,3.155-4.317l3.381-45.063C240.264,130.747,239.652,129.231,238.466,128.174z M231.773,177.052
							l-0.103,0.011l-10.303-9.196c-1.97-1.756-5-1.694-6.896,0.144l-53.776,52.12c-3.073,2.979-7.282,4.559-11.561,4.342
							l-72.542-3.72c-1.485-0.068-2.943,0.288-4.215,1.053l-48.447,29.067c-0.278,0.168-0.545,0.134-0.682,0.1
							c-0.165-0.042-0.394-0.149-0.552-0.42c-0.218-0.374-0.037-0.956,0.396-1.272l46.917-34.291c1.71-1.25,3.734-1.911,5.854-1.911
							h70.296c1.784,0,3.514-0.741,4.746-2.034l50.981-53.553c0.954-1.002,1.449-2.315,1.393-3.697
							c-0.056-1.383-0.655-2.652-1.688-3.574l-10.951-9.776l0.054-0.088l44.388-8.465l0.076,0.067L231.773,177.052z"/>
					</g>
				</g>
			</g>
		</g>
		<g>
			<g>
				<path fill="#F5C84C" d="M115.227,20.025c-4.5-0.8-8-4.3-8.9-8.7c0-0.2-0.4-0.2-0.4,0c-0.9,4.4-4.4,7.9-8.9,8.7
					c-0.2,0-0.2,0.3,0,0.4c4.5,0.8,8,4.3,8.9,8.7c0,0.2,0.4,0.2,0.4,0c0.9-4.4,4.4-7.9,8.9-8.7
					C115.427,20.325,115.427,20.025,115.227,20.025z"/>
			</g>
		</g>
		<g>
			<g>
				<path fill="#87D147" d="M213.894,114.083c-3.192-0.567-5.675-3.05-6.313-6.171c0-0.142-0.284-0.142-0.284,0
					c-0.638,3.121-3.121,5.604-6.313,6.171c-0.142,0-0.142,0.213,0,0.284c3.192,0.568,5.675,3.05,6.313,6.171
					c0,0.142,0.284,0.142,0.284,0c0.638-3.121,3.121-5.604,6.313-6.171C214.035,114.296,214.035,114.083,213.894,114.083z"/>
			</g>
		</g>
		<g>
			<g>
				<path fill="#FC657E" d="M94.514,244.1h-2.3v-2.3c0-1.8-1.4-3.2-3.2-3.2s-3.2,1.5-3.2,3.2v2.3h-2.3c-1.8,0-3.2,1.4-3.2,3.2
					c0,1.8,1.5,3.2,3.2,3.2h2.3v2.3c0,1.8,1.4,3.2,3.2,3.2s3.2-1.5,3.2-3.2v-2.3h2.3c1.8,0,3.2-1.4,3.2-3.2
					C97.714,245.5,96.214,244.1,94.514,244.1z"/>
			</g>
		</g>
		<g>
			<g>
				<path fill="#70D6F9" d="M129.127,0c-1.878,0-3.4,1.522-3.4,3.4c0,1.878,1.522,3.4,3.4,3.4s3.4-1.522,3.4-3.4
					C132.527,1.522,131.004,0,129.127,0z"/>
			</g>
		</g>
		<g>
			<g>
				<path fill="#F5C84C" d="M117.914,235.825c-1.878,0-3.4,1.522-3.4,3.4c0,1.877,1.522,3.4,3.4,3.4c1.878,0,3.4-1.522,3.4-3.4
					C121.314,237.347,119.792,235.825,117.914,235.825z"/>
			</g>
		</g>
	</g>
</g>
<g id="Layer_72">
</g>
<g id="Layer_73">
</g>
<g id="Layer_74">
</g>
<g id="Layer_75">
</g>
</svg>
